<svg width="21" height="26" viewBox="0 0 21 26" fill="none" xmlns="http://www.w3.org/2000/svg">
<path d="M20.51 18.9453C19.9568 20.2695 19.6929 20.8633 18.9808 22.0312C17.9902 23.668 16.5876 25.707 14.8523 25.7188C13.3123 25.7344 12.9146 24.6328 10.8215 24.6523C8.72834 24.6602 8.29091 25.7383 6.74726 25.7227C5.01563 25.707 3.68889 23.8672 2.69474 22.2383C-0.0852757 17.6641 -0.3781 12.3008 1.33907 9.44922C2.55375 7.42578 4.47698 6.23828 6.28453 6.23828C8.121 6.23828 9.27783 7.32812 10.7998 7.32812C12.2748 7.32812 13.1713 6.23438 15.3006 6.23438C16.9057 6.23438 18.6084 7.17969 19.8231 8.81641C15.8465 11.168 16.4936 17.3047 20.51 18.9453ZM13.6846 4.40625C14.4583 3.33594 15.0439 1.82031 14.8342 0.277344C13.569 0.371094 12.094 1.24219 11.23 2.36719C10.4491 3.39453 9.80202 4.92187 10.0551 6.39844C11.4324 6.44531 12.8568 5.55859 13.6846 4.40625Z" fill="#979797"/>
</svg>
