<svg width="14" height="20" viewBox="0 0 14 20" fill="none" xmlns="http://www.w3.org/2000/svg">
<path d="M3.87734 17.7481C3.87773 17.9938 3.95039 18.2344 4.08672 18.4391L4.7543 19.4426C4.86834 19.6142 5.02302 19.7549 5.20457 19.8522C5.38613 19.9495 5.58893 20.0004 5.79492 20.0004H8.20547C8.41146 20.0004 8.61426 19.9495 8.79582 19.8522C8.97737 19.7549 9.13205 19.6142 9.24609 19.4426L9.91367 18.4391C10.0499 18.2344 10.1228 17.994 10.123 17.7481L10.1246 16.25H3.87539L3.87734 17.7481ZM0.125 6.87503C0.125 8.60824 0.767578 10.1895 1.82656 11.3977C2.47188 12.134 3.48125 13.6723 3.86602 14.97C3.86758 14.9801 3.86875 14.9903 3.87031 15.0004H10.1297C10.1312 14.9903 10.1324 14.9805 10.134 14.97C10.5188 13.6723 11.5281 12.134 12.1734 11.3977C13.2324 10.1895 13.875 8.60824 13.875 6.87503C13.875 3.07074 10.7855 -0.0116854 6.97852 3.33038e-05C2.99375 0.0121427 0.125 3.24105 0.125 6.87503ZM7 3.75003C5.27695 3.75003 3.875 5.15199 3.875 6.87503C3.875 7.22035 3.59531 7.50003 3.25 7.50003C2.90469 7.50003 2.625 7.22035 2.625 6.87503C2.625 4.46253 4.5875 2.50003 7 2.50003C7.34531 2.50003 7.625 2.77972 7.625 3.12503C7.625 3.47035 7.34531 3.75003 7 3.75003Z" fill="#9FA2B4"/>
</svg>
