<svg width="34" height="34" viewBox="0 0 34 34" fill="none" xmlns="http://www.w3.org/2000/svg">
<path fill-rule="evenodd" clip-rule="evenodd" d="M15.5562 16.9705L11.3136 12.7278C10.9231 12.3373 10.9231 11.7041 11.3136 11.3136C11.7041 10.9231 12.3373 10.9231 12.7278 11.3136L16.9704 15.5562L21.2131 11.3136C21.6036 10.9231 22.2368 10.9231 22.6273 11.3136C23.0178 11.7041 23.0178 12.3373 22.6273 12.7278L18.3847 16.9705L22.6273 21.2131C23.0178 21.6036 23.0178 22.2368 22.6273 22.6273C22.2368 23.0178 21.6036 23.0178 21.2131 22.6273L16.9704 18.3847L12.7278 22.6273C12.3373 23.0178 11.7041 23.0178 11.3136 22.6273C10.9231 22.2368 10.9231 21.6036 11.3136 21.2131L15.5562 16.9705Z" fill="#4B506D"/>
<mask id="mask0" mask-type="alpha" maskUnits="userSpaceOnUse" x="5" y="5" width="24" height="24">
<path fill-rule="evenodd" clip-rule="evenodd" d="M15.5562 16.9705L11.3136 12.7278C10.9231 12.3373 10.9231 11.7041 11.3136 11.3136C11.7041 10.9231 12.3373 10.9231 12.7278 11.3136L16.9704 15.5562L21.2131 11.3136C21.6036 10.9231 22.2368 10.9231 22.6273 11.3136C23.0178 11.7041 23.0178 12.3373 22.6273 12.7278L18.3847 16.9705L22.6273 21.2131C23.0178 21.6036 23.0178 22.2368 22.6273 22.6273C22.2368 23.0178 21.6036 23.0178 21.2131 22.6273L16.9704 18.3847L12.7278 22.6273C12.3373 23.0178 11.7041 23.0178 11.3136 22.6273C10.9231 22.2368 10.9231 21.6036 11.3136 21.2131L15.5562 16.9705Z" fill="white"/>
</mask>
<g mask="url(#mask0)">
</g>
</svg>
