<svg width="191" height="133" viewBox="0 0 191 133" fill="none" xmlns="http://www.w3.org/2000/svg">
<path d="M187 116.778V67V17.2222C187 9.4 180.595 3 172.766 3H17.2338C9.40521 3 3 9.4 3 17.2222V116.778C3 124.6 9.40521 131 17.2338 131H172.766C180.595 131 187 124.6 187 116.778ZM75.1886 49.1667L92.9809 70.5711L105.435 54.5356L117.89 38.5L149.916 81.1667H50.2794L75.1886 49.1667Z" fill="#C5C7CD"/>
<path d="M187 116.778V67V17.2222C187 9.4 180.595 3 172.766 3H17.2338C9.40521 3 3 9.4 3 17.2222V116.778C3 124.6 9.40521 131 17.2338 131H172.766C180.595 131 187 124.6 187 116.778ZM75.1886 49.1667L92.9809 70.5711L105.435 54.5356L117.89 38.5L149.916 81.1667H50.2794L75.1886 49.1667Z" fill="#C5C7CD"/>
</svg>
