<svg width="39" height="43" viewBox="0 0 39 43" fill="none" xmlns="http://www.w3.org/2000/svg">
<path d="M38.9991 21.1358C39.0217 19.5973 38.6335 18.0807 37.8744 16.7424C37.1154 15.4041 36.013 14.2925 34.681 13.5223L13.8634 1.47723C12.4151 0.515696 10.7157 0.00191995 8.9772 0C6.65678 0.00676879 4.4284 0.908409 2.75617 2.51714C1.08393 4.12588 0.096735 6.31769 0.000182125 8.63612V33.2945C-0.00736434 34.4755 0.21968 35.6462 0.668145 36.7388C1.11661 37.8313 1.77756 38.8239 2.61266 39.659C3.44776 40.4941 4.44038 41.1551 5.53293 41.6036C6.62548 42.052 7.79621 42.2791 8.9772 42.2715C10.7781 42.2897 12.5378 41.7324 13.9998 40.6807L34.2265 28.9764C35.6643 28.2326 36.87 27.1079 37.7117 25.725C38.5535 24.3422 38.9988 22.7546 38.9991 21.1358Z" fill="url(#paint0_linear)"/>
<defs>
<linearGradient id="paint0_linear" x1="6.10228" y1="3.06809" x2="33.7947" y2="53.0553" gradientUnits="userSpaceOnUse">
<stop offset="0.29" stop-color="#0182FE"/>
<stop offset="0.35" stop-color="#0685FE"/>
<stop offset="0.42" stop-color="#168CFE"/>
<stop offset="0.5" stop-color="#2F99FE"/>
<stop offset="0.59" stop-color="#52AAFE"/>
<stop offset="0.63" stop-color="#67B4FE"/>
</linearGradient>
</defs>
</svg>
