<svg width="26" height="27" viewBox="0 0 26 27" fill="none" xmlns="http://www.w3.org/2000/svg">
<g clip-path="url(#clip0)">
<path fill-rule="evenodd" clip-rule="evenodd" d="M12.4624 5.39992C14.192 5.39992 15.8667 6.04657 17.1909 7.22782L20.8947 3.49102C19.4726 2.10204 17.7644 1.08328 15.9056 0.515582C14.0469 -0.0521149 12.0889 -0.153119 10.1869 0.220585C8.28487 0.594289 6.49128 1.43241 4.94844 2.66845C3.4056 3.90448 2.15599 5.50439 1.29877 7.34122L5.47541 10.7513C5.96253 9.19553 6.89944 7.84152 8.15343 6.88107C9.40742 5.92063 10.9149 5.40245 12.4624 5.39992Z" fill="#D94F3D"/>
<path fill-rule="evenodd" clip-rule="evenodd" d="M5.09811 13.2004C5.09811 12.3674 5.22556 11.5399 5.47537 10.7515L1.29872 7.34137C0.444249 9.16187 -0.000427246 11.1673 -0.000427246 13.2004C-0.000427246 15.2334 0.444249 17.2389 1.29872 19.0594L5.47537 15.6493C5.22651 14.8597 5.09913 14.0328 5.09811 13.2004Z" fill="#F2C042"/>
<path fill-rule="evenodd" clip-rule="evenodd" d="M24.4149 10.8H12.5184V16.2H19.2607C18.8596 17.7272 17.9406 19.0438 16.6798 19.8977L20.8233 23.2808C23.4718 20.7631 25.028 16.6698 24.4149 10.8Z" fill="#979797"/>
<path fill-rule="evenodd" clip-rule="evenodd" d="M16.6773 19.8976C15.3968 20.674 13.9369 21.056 12.4624 21.0006C10.9149 20.998 9.40743 20.4799 8.15343 19.5194C6.89944 18.559 5.96253 17.205 5.47542 15.6492L1.29877 19.0579C2.33026 21.2608 3.92163 23.1152 5.89385 24.4124C7.86607 25.7096 10.1409 26.3981 12.4624 26.4006C15.5171 26.4881 18.4944 25.3764 20.8221 23.2794L16.6773 19.8976Z" fill="#57A75C"/>
</g>
<defs>
<clipPath id="clip0">
<rect width="25.4907" height="27" fill="white"/>
</clipPath>
</defs>
</svg>
