<svg width="18" height="18" viewBox="0 0 18 18" fill="none" xmlns="http://www.w3.org/2000/svg">
<path fill-rule="evenodd" clip-rule="evenodd" d="M2.25 1.5H7.5C7.91421 1.5 8.25 1.83579 8.25 2.25V7.5C8.25 7.91421 7.91421 8.25 7.5 8.25H2.25C1.83579 8.25 1.5 7.91421 1.5 7.5V2.25C1.5 1.83579 1.83579 1.5 2.25 1.5ZM3 3V6.75H6.75V3H3ZM15.75 1.5H10.5C10.0858 1.5 9.75 1.83579 9.75 2.25V7.5C9.75 7.91421 10.0858 8.25 10.5 8.25H15.75C16.1642 8.25 16.5 7.91421 16.5 7.5V2.25C16.5 1.83579 16.1642 1.5 15.75 1.5ZM11.25 6.75H15V3H11.25V6.75ZM15.75 9.75H10.5C10.0858 9.75 9.75 10.0858 9.75 10.5V15.75C9.75 16.1642 10.0858 16.5 10.5 16.5H15.75C16.1642 16.5 16.5 16.1642 16.5 15.75V10.5C16.5 10.0858 16.1642 9.75 15.75 9.75ZM11.25 15H15V11.25H11.25V15Z" fill="#C5C7CD"/>
<mask id="mask0" mask-type="alpha" maskUnits="userSpaceOnUse" x="1" y="1" width="16" height="16">
<path fill-rule="evenodd" clip-rule="evenodd" d="M7.5 1.5H2.25C1.83579 1.5 1.5 1.83579 1.5 2.25V7.5C1.5 7.91421 1.83579 8.25 2.25 8.25H7.5C7.91421 8.25 8.25 7.91421 8.25 7.5V2.25C8.25 1.83579 7.91421 1.5 7.5 1.5ZM3 6.75V3H6.75V6.75H3ZM10.5 1.5H15.75C16.1642 1.5 16.5 1.83579 16.5 2.25V7.5C16.5 7.91421 16.1642 8.25 15.75 8.25H10.5C10.0858 8.25 9.75 7.91421 9.75 7.5V2.25C9.75 1.83579 10.0858 1.5 10.5 1.5ZM15 6.75H11.25V3H15V6.75ZM10.5 9.75H15.75C16.1642 9.75 16.5 10.0858 16.5 10.5V15.75C16.5 16.1642 16.1642 16.5 15.75 16.5H10.5C10.0858 16.5 9.75 16.1642 9.75 15.75V10.5C9.75 10.0858 10.0858 9.75 10.5 9.75ZM15 15H11.25V11.25H15V15ZM2.25 9.75H7.5C7.91421 9.75 8.25 10.0858 8.25 10.5V15.75C8.25 16.1642 7.91421 16.5 7.5 16.5H2.25C1.83579 16.5 1.5 16.1642 1.5 15.75V10.5C1.5 10.0858 1.83579 9.75 2.25 9.75ZM6.75 15H3V11.25H6.75V15Z" fill="white"/>
</mask>
<g mask="url(#mask0)">
<rect width="18" height="18" fill="#C5C7CD"/>
</g>
</svg>
