<svg width="131" height="80" viewBox="0 0 131 80" fill="none" xmlns="http://www.w3.org/2000/svg">
<path d="M89.2002 26.1686C89.2274 24.3184 88.7605 22.4945 87.8476 20.885C86.9348 19.2754 85.609 17.9386 84.0071 17.0124L58.9712 2.52657C57.2294 1.37019 55.1856 0.752309 53.0949 0.75C50.3042 0.75814 47.6243 1.84248 45.6132 3.7772C43.6022 5.71192 42.4149 8.34787 42.2988 11.1361V40.7911C42.2897 42.2114 42.5628 43.6194 43.1021 44.9333C43.6415 46.2472 44.4363 47.441 45.4407 48.4453C46.445 49.4496 47.6387 50.2445 48.9527 50.7838C50.2666 51.3232 51.6746 51.5962 53.0949 51.5872C55.2607 51.6091 57.3769 50.9388 59.1352 49.6739L83.4605 35.5981C85.1897 34.7035 86.6397 33.3508 87.652 31.6878C88.6643 30.0248 89.1999 28.1155 89.2002 26.1686Z" fill="url(#paint0_linear)"/>
<path d="M62.9343 36.008C62.9343 35.8714 62.7976 35.8714 62.7976 35.7347C62.2163 34.4055 61.3262 33.2342 60.2011 32.3182C59.9141 32.0449 42.4354 21.2489 42.4354 21.2489V40.9278C42.4698 42.4334 42.7946 43.9183 43.392 45.3008C43.4605 45.3769 43.5035 45.4725 43.515 45.5742C44.7836 48.1493 47.0231 50.1151 49.7411 51.039C52.459 51.9629 55.4326 51.7693 58.0077 50.5007C60.5829 49.2322 62.5486 46.9926 63.4725 44.2747C64.3964 41.5568 64.2028 38.5832 62.9343 36.008Z" fill="url(#paint1_linear)"/>
<path d="M0.467481 66.893C0.619047 66.4872 0.909572 66.1482 1.28744 65.9364C1.67124 65.7568 2.10352 65.7088 2.51737 65.7997C2.92474 65.9545 3.26705 66.2438 3.48765 66.6197L7.02711 73.7259L10.5802 66.6197C10.7921 66.2418 11.131 65.9513 11.5369 65.7997C11.7382 65.7241 11.9545 65.6971 12.1682 65.7208C12.3819 65.7446 12.587 65.8184 12.7668 65.9364C13.1447 66.1482 13.4352 66.4872 13.5867 66.893C13.6623 67.0943 13.6894 67.3106 13.6656 67.5243C13.6419 67.738 13.568 67.9431 13.4501 68.1229L8.39371 78.099C8.24335 78.3929 8.00428 78.632 7.71041 78.7823C7.53061 78.9003 7.32551 78.9741 7.1118 78.9978C6.89808 79.0216 6.68178 78.9946 6.48048 78.919C6.26957 78.8632 6.074 78.7604 5.90836 78.6185C5.74271 78.4765 5.61128 78.2989 5.52387 78.099L0.467481 68.1229C0.344173 67.7222 0.344173 67.2937 0.467481 66.893ZM18.6431 77.4157C18.646 77.648 18.5986 77.8782 18.5043 78.0904C18.4099 78.3027 18.2708 78.4921 18.0965 78.6457C17.9488 78.8269 17.7605 78.9708 17.5468 79.0658C17.3331 79.1608 17.1001 79.2041 16.8666 79.1923C16.6348 79.1917 16.4058 79.1427 16.194 79.0486C15.9822 78.9545 15.7924 78.8172 15.6366 78.6457C15.4682 78.4874 15.3331 78.297 15.2392 78.0858C15.1454 77.8746 15.0946 77.6468 15.09 77.4157V67.4396C15.0793 67.2257 15.124 67.0127 15.2197 66.8212C15.3155 66.6297 15.4591 66.4661 15.6366 66.3463C15.7949 66.1779 15.9852 66.0428 16.1965 65.9489C16.4077 65.8551 16.6355 65.8043 16.8666 65.7997C17.0983 65.8003 17.3274 65.8493 17.5391 65.9434C17.7509 66.0375 17.9407 66.1748 18.0965 66.3463C18.4094 66.6293 18.6046 67.0195 18.6431 67.4396V77.4157ZM30.4368 64.4331C30.434 64.2008 30.4813 63.9707 30.5757 63.7584C30.67 63.5461 30.8091 63.3567 30.9834 63.2032C31.1312 63.0219 31.3195 62.878 31.5331 62.783C31.7468 62.6881 31.9798 62.6447 32.2134 62.6565C32.4272 62.6458 32.6403 62.6905 32.8318 62.7863C33.0233 62.882 33.1869 63.0257 33.3066 63.2032C33.4751 63.3615 33.6102 63.5518 33.704 63.763C33.7979 63.9742 33.8486 64.202 33.8533 64.4331V72.496C33.8584 73.3587 33.6919 74.2137 33.3634 75.0114C33.035 75.8091 32.5511 76.5335 31.9401 77.1424C31.3231 77.781 30.5779 78.2817 29.7535 78.6115C28.9291 78.9412 28.0441 79.0926 27.157 79.0556C26.2943 79.0608 25.4393 78.8942 24.6416 78.5658C23.8439 78.2373 23.1195 77.7535 22.5106 77.1424C21.8846 76.5447 21.3909 75.8224 21.0613 75.0221C20.7318 74.2217 20.5737 73.3612 20.5974 72.496C20.5866 70.7131 21.2732 68.9966 22.5106 67.7129C23.1083 67.0869 23.8306 66.5932 24.6309 66.2637C25.4313 65.9342 26.2918 65.7761 27.157 65.7997C28.365 65.7768 29.553 66.1095 30.5735 66.7563V64.4331H30.4368ZM29.4802 74.8192C29.7882 74.5166 30.0318 74.1548 30.1962 73.7555C30.3606 73.3562 30.4425 72.9278 30.4368 72.496C30.4681 72.0611 30.3981 71.6249 30.232 71.2218C30.066 70.8186 29.8087 70.4595 29.4802 70.1728C29.1755 69.8637 28.8114 69.6196 28.4097 69.4552C28.0081 69.2908 27.5773 69.2095 27.1433 69.2162C26.7086 69.1859 26.2727 69.2565 25.8697 69.4224C25.4667 69.5884 25.1075 69.8452 24.8201 70.1728C24.5121 70.4754 24.2685 70.8372 24.1041 71.2365C23.9397 71.6358 23.8578 72.0642 23.8635 72.496C23.8322 72.9309 23.9023 73.3671 24.0683 73.7702C24.2343 74.1734 24.4917 74.5325 24.8201 74.8192C25.4414 75.431 26.2783 75.7739 27.1502 75.7739C28.022 75.7739 28.859 75.431 29.4802 74.8192ZM45.319 74.8192C45.5311 74.8192 45.7404 74.8686 45.9301 74.9635C46.1199 75.0584 46.2849 75.1961 46.4122 75.3658C46.5491 75.5085 46.6463 75.6844 46.6943 75.8761C46.7422 76.0679 46.7392 76.2689 46.6856 76.4591C46.6704 76.6835 46.6001 76.9007 46.4809 77.0914C46.3617 77.2821 46.1973 77.4404 46.0023 77.5524C45.4157 78.0748 44.713 78.4496 43.9524 78.6457C43.259 78.9131 42.5227 79.052 41.7795 79.0556C40.915 79.0595 40.0582 78.8925 39.2585 78.5642C38.4587 78.2359 37.7318 77.7527 37.1194 77.1424C36.4934 76.5447 35.9997 75.8224 35.6702 75.0221C35.3406 74.2217 35.1826 73.3612 35.2062 72.496C35.1955 70.7131 35.8821 68.9966 37.1194 67.7129C37.7192 67.0859 38.4439 66.5916 39.2466 66.2621C40.0492 65.9325 40.9121 65.775 41.7795 65.7997C43.5624 65.789 45.2789 66.4756 46.5626 67.7129C47.2012 68.3299 47.7019 69.0751 48.0316 69.8995C48.3614 70.7239 48.5128 71.6088 48.4758 72.496C48.4758 73.316 47.9292 73.7259 46.8359 73.7259H38.732C38.7802 74.0302 38.8914 74.3211 39.0585 74.5799C39.2256 74.8388 39.4449 75.0599 39.7023 75.2292C40.3286 75.6958 41.0945 75.9367 41.8752 75.9125C42.6788 75.9104 43.4549 75.6194 44.0617 75.0925C44.4448 74.9069 44.866 74.8133 45.2916 74.8192H45.319ZM44.909 71.1294C44.7415 70.4716 44.3493 69.893 43.8003 69.4937C43.2513 69.0944 42.58 68.8996 41.9025 68.9429C41.209 68.9007 40.5215 69.0935 39.9512 69.4903C39.3809 69.8871 38.961 70.4645 38.7593 71.1294H44.909ZM56.402 65.7997C58.1849 65.789 59.9014 66.4756 61.1851 67.7129C61.8237 68.3299 62.3244 69.0751 62.6541 69.8995C62.9839 70.7239 63.1353 71.6088 63.0983 72.496C63.1034 73.3587 62.9369 74.2137 62.6085 75.0114C62.28 75.8091 61.7962 76.5335 61.1851 77.1424C60.5682 77.781 59.823 78.2817 58.9985 78.6115C58.1741 78.9412 57.2892 79.0926 56.402 79.0556C55.5375 79.0595 54.6807 78.8925 53.881 78.5642C53.0813 78.2359 52.3543 77.7527 51.7419 77.1424C51.116 76.5447 50.6223 75.8224 50.2927 75.0221C49.9632 74.2217 49.8051 73.3612 49.8287 72.496C49.818 70.7131 50.5046 68.9966 51.7419 67.7129C52.3539 67.1021 53.0807 66.6185 53.8806 66.2901C54.6804 65.9617 55.5374 65.795 56.402 65.7997ZM54.0788 70.0361C53.7689 70.3381 53.5233 70.6995 53.3565 71.0987C53.1898 71.4979 53.1054 71.9267 53.1085 72.3593C53.0799 72.7952 53.1526 73.2318 53.321 73.6348C53.4893 74.0379 53.7487 74.3965 54.0788 74.6825C54.3809 74.9912 54.7427 75.2352 55.1421 75.3997C55.5415 75.5641 55.9701 75.6456 56.402 75.6392C56.8369 75.6705 57.2731 75.6004 57.6763 75.4344C58.0794 75.2684 58.4385 75.011 58.7252 74.6825C59.0333 74.3799 59.2768 74.0181 59.4412 73.6188C59.6057 73.2195 59.6875 72.7911 59.6818 72.3593C59.7132 71.9245 59.6431 71.4883 59.4771 71.0851C59.3111 70.6819 59.0537 70.3229 58.7252 70.0361C58.4226 69.7281 58.0608 69.4845 57.6615 69.3201C57.2622 69.1557 56.8338 69.0739 56.402 69.0795C55.5277 69.0995 54.6912 69.4399 54.0515 70.0361H54.0788Z" fill="#0182FE"/>
<path d="M76.0399 68.8062C76.0488 69.0066 76.017 69.2068 75.9465 69.3947C75.8761 69.5825 75.7684 69.7542 75.63 69.8995C75.3504 70.2094 74.9656 70.4042 74.5504 70.4461C74.1466 70.4563 73.7546 70.3093 73.4571 70.0361C72.5923 69.26 71.4758 68.8231 70.3139 68.8062C68.4007 68.8062 67.4441 69.3528 67.5808 70.3094C67.5808 70.8561 68.5374 71.266 70.3139 71.1294C71.6346 71.0481 72.9556 71.2823 74.1677 71.8127C74.7934 72.059 75.3269 72.4939 75.6942 73.0571C76.0616 73.6204 76.2445 74.284 76.2176 74.9558C76.2106 75.6557 76.0001 76.3384 75.6119 76.9208C75.2236 77.5031 74.6744 77.96 74.0311 78.2357C72.8686 78.9024 71.544 79.2335 70.2046 79.1923C69.2792 79.1801 68.3597 79.0422 67.4714 78.7823C66.4547 78.5034 65.5183 77.9883 64.7382 77.279C64.5607 77.1593 64.4171 76.9957 64.3213 76.8042C64.2256 76.6127 64.1809 76.3996 64.1916 76.1858C64.2016 75.7439 64.3445 75.3153 64.6016 74.9558C64.8845 74.6429 65.2747 74.4478 65.6949 74.4092C66.0942 74.4011 66.4812 74.548 66.7745 74.8192C67.7399 75.6065 68.9452 76.0404 70.1909 76.0491C72.1178 75.9125 73.0608 75.5025 72.9241 74.5459C72.9241 73.9992 71.9675 73.5893 70.1909 73.7259C68.8353 73.7993 67.4806 73.5657 66.2278 73.0426C65.6021 72.7963 65.0686 72.3614 64.7013 71.7982C64.334 71.2349 64.1511 70.5713 64.1779 69.8995C64.1964 69.1485 64.4411 68.4207 64.8799 67.8111C65.3188 67.2015 65.9315 66.7386 66.6378 66.483C67.7429 65.9387 68.9591 65.658 70.1909 65.663C71.0715 65.676 71.9458 65.814 72.7875 66.073C73.7314 66.3609 74.6123 66.8245 75.384 67.4396C75.5961 67.597 75.7666 67.8037 75.8809 68.0418C75.9952 68.2799 76.0498 68.5423 76.0399 68.8062Z" fill="#4F4F4F"/>
<path d="M106.105 77.4157C106.108 77.648 106.06 77.8782 105.966 78.0904C105.872 78.3027 105.733 78.4921 105.558 78.6456C105.275 78.9586 104.885 79.1537 104.465 79.1923C104.144 79.2184 103.824 79.1391 103.553 78.9664C103.281 78.7937 103.074 78.5371 102.962 78.2357C101.905 78.9023 100.671 79.2356 99.4223 79.1923C98.5578 79.1962 97.701 79.0292 96.9013 78.7008C96.1015 78.3725 95.3746 77.8893 94.7622 77.279C94.1362 76.6813 93.6425 75.959 93.313 75.1587C92.9834 74.3584 92.8254 73.4978 92.849 72.6326C92.8383 70.8497 93.5249 69.1333 94.7622 67.8496C95.362 67.2225 96.0866 66.7283 96.8893 66.3987C97.692 66.0692 98.5549 65.9117 99.4223 65.9364C101.215 65.9185 102.942 66.6056 104.233 67.8496C104.871 68.4665 105.372 69.2117 105.702 70.0361C106.032 70.8605 106.183 71.7455 106.146 72.6326V77.4157H106.105ZM99.4223 69.0795C98.9874 69.0482 98.5512 69.1183 98.148 69.2843C97.7449 69.4503 97.3858 69.7077 97.0991 70.0361C96.7892 70.338 96.5435 70.6995 96.3768 71.0987C96.2101 71.4979 96.1257 71.9267 96.1288 72.3593C96.1002 72.7952 96.1729 73.2318 96.3412 73.6348C96.5096 74.0379 96.769 74.3965 97.0991 74.6825C97.4012 74.9912 97.763 75.2352 98.1623 75.3997C98.5617 75.5641 98.9904 75.6456 99.4223 75.6391C99.8572 75.6705 100.293 75.6004 100.697 75.4344C101.1 75.2684 101.459 75.011 101.745 74.6825C102.054 74.3799 102.297 74.0181 102.462 73.6188C102.626 73.2195 102.708 72.7911 102.702 72.3593C102.733 71.9245 102.663 71.4882 102.497 71.0851C102.331 70.6819 102.074 70.3228 101.745 70.0361C101.096 69.4729 100.28 69.137 99.4223 69.0795Z" fill="#4F4F4F"/>
<path d="M127.56 74.8192C127.773 74.8192 127.982 74.8686 128.172 74.9635C128.361 75.0583 128.526 75.1961 128.654 75.3658C128.791 75.5084 128.888 75.6843 128.936 75.8761C128.984 76.0679 128.981 76.2689 128.927 76.4591C128.912 76.6835 128.842 76.9007 128.722 77.0914C128.603 77.2821 128.439 77.4404 128.244 77.5524C127.657 78.0748 126.954 78.4496 126.194 78.6456C125.5 78.913 124.764 79.052 124.021 79.0556C123.156 79.0595 122.3 78.8925 121.5 78.5642C120.7 78.2358 119.973 77.7526 119.361 77.1424C118.735 76.5447 118.241 75.8224 117.912 75.022C117.582 74.2217 117.424 73.3612 117.448 72.496C117.437 70.7131 118.124 68.9966 119.361 67.7129C119.961 67.0859 120.685 66.5916 121.488 66.2621C122.291 65.9325 123.154 65.775 124.021 65.7997C125.813 65.7818 127.541 66.4689 128.831 67.7129C129.47 68.3298 129.971 69.0751 130.3 69.8995C130.63 70.7239 130.782 71.6088 130.745 72.496C130.745 73.3159 130.198 73.7259 129.105 73.7259H121.042C121.084 74.0304 121.192 74.3222 121.357 74.5815C121.522 74.8409 121.741 75.0618 121.998 75.2292C122.625 75.6958 123.391 75.9367 124.171 75.9125C124.975 75.9104 125.751 75.6194 126.358 75.0925C126.743 74.9423 127.148 74.8502 127.56 74.8192ZM127.164 71.1294C126.991 70.4718 126.596 69.8944 126.045 69.4957C125.495 69.097 124.823 68.9016 124.144 68.9429C123.452 68.8989 122.765 69.0913 122.197 69.4885C121.628 69.8858 121.211 70.4643 121.014 71.1294H127.164Z" fill="#4F4F4F"/>
<path d="M116.764 66.483C116.969 66.5983 117.148 66.7551 117.289 66.9433C117.431 67.1315 117.531 67.3471 117.584 67.5763C117.675 67.9901 117.627 68.4224 117.448 68.8062C117.332 69.0113 117.176 69.1901 116.987 69.3313C116.799 69.4724 116.584 69.5729 116.354 69.6262C116.142 69.6826 115.92 69.6873 115.706 69.6397C115.492 69.5921 115.292 69.4937 115.124 69.3528C114.773 69.2335 114.401 69.187 114.031 69.2162C113.31 69.2264 112.623 69.5212 112.118 70.0361C111.851 70.2769 111.64 70.5726 111.498 70.9028C111.357 71.2331 111.288 71.5901 111.298 71.9494V77.689C111.297 77.9208 111.248 78.1498 111.154 78.3616C111.06 78.5734 110.923 78.7632 110.751 78.919C110.596 79.0915 110.407 79.2295 110.195 79.324C109.983 79.4185 109.753 79.4673 109.521 79.4673C109.289 79.4673 109.06 79.4185 108.848 79.324C108.636 79.2295 108.447 79.0915 108.291 78.919C108.123 78.7607 107.988 78.5704 107.894 78.3591C107.8 78.1479 107.749 77.9201 107.745 77.689V71.9494C107.759 70.352 108.403 68.8247 109.536 67.699C110.67 66.5732 112.201 65.9399 113.799 65.9364C114.819 65.8324 115.848 66.0221 116.764 66.483Z" fill="#DDDDDD"/>
<path d="M116.764 66.483C116.969 66.5983 117.148 66.7551 117.289 66.9433C117.431 67.1315 117.531 67.3471 117.584 67.5763C117.675 67.9901 117.627 68.4224 117.448 68.8062C117.332 69.0113 117.176 69.1901 116.987 69.3313C116.799 69.4724 116.584 69.5729 116.354 69.6262C116.142 69.6826 115.92 69.6873 115.706 69.6397C115.492 69.5921 115.292 69.4937 115.124 69.3528C114.773 69.2335 114.401 69.187 114.031 69.2162C113.31 69.2264 112.623 69.5212 112.118 70.0361C111.851 70.2769 111.64 70.5726 111.498 70.9028C111.357 71.2331 111.288 71.5901 111.298 71.9494V77.689C111.297 77.9208 111.248 78.1498 111.154 78.3616C111.06 78.5734 110.923 78.7632 110.751 78.919C110.596 79.0915 110.407 79.2295 110.195 79.324C109.983 79.4185 109.753 79.4673 109.521 79.4673C109.289 79.4673 109.06 79.4185 108.848 79.324C108.636 79.2295 108.447 79.0915 108.291 78.919C108.123 78.7607 107.988 78.5704 107.894 78.3591C107.8 78.1479 107.749 77.9201 107.745 77.689V71.9494C107.759 70.352 108.403 68.8247 109.536 67.699C110.67 66.5732 112.201 65.9399 113.799 65.9364C114.819 65.8324 115.848 66.0221 116.764 66.483Z" fill="#4F4F4F"/>
<path d="M81.0962 77.4157C81.0991 77.648 81.0517 77.8782 80.9574 78.0904C80.863 78.3027 80.7239 78.4921 80.5496 78.6457C80.3945 78.8182 80.2049 78.9562 79.993 79.0507C79.7811 79.1452 79.5517 79.194 79.3197 79.194C79.0877 79.194 78.8582 79.1452 78.6463 79.0507C78.4344 78.9562 78.2448 78.8182 78.0897 78.6457C77.9213 78.4874 77.7862 78.297 77.6923 78.0858C77.5985 77.8746 77.5477 77.6468 77.5431 77.4157V64.4331C77.5437 64.2014 77.5927 63.9723 77.6868 63.7605C77.7809 63.5488 77.9181 63.3589 78.0897 63.2032C78.248 63.0348 78.4383 62.8997 78.6495 62.8058C78.8608 62.7119 79.0886 62.6612 79.3197 62.6565C79.5532 62.6447 79.7862 62.6881 79.9999 62.783C80.2136 62.878 80.4019 63.0219 80.5496 63.2032C80.7334 63.3487 80.8792 63.5366 80.9744 63.7508C81.0696 63.965 81.1114 64.1992 81.0962 64.4331V67.4396C82.143 66.8542 83.3141 66.5262 84.5127 66.483C86.2956 66.4723 88.0121 67.1589 89.2958 68.3962C89.9361 69.0125 90.4389 69.7572 90.771 70.5816C91.1031 71.4059 91.257 72.2912 91.2227 73.1793V77.4157C91.222 77.6488 91.1717 77.879 91.0751 78.0911C90.9785 78.3032 90.8378 78.4922 90.6624 78.6457C90.3828 78.9556 89.998 79.1504 89.5827 79.1923C89.3492 79.1903 89.1186 79.1408 88.9048 79.0468C88.691 78.9528 88.4985 78.8163 88.3392 78.6457C88.1579 78.4979 88.014 78.3096 87.919 78.096C87.824 77.8823 87.7807 77.6492 87.7925 77.4157V73.316C87.8239 72.8811 87.7538 72.4449 87.5878 72.0417C87.4217 71.6386 87.1644 71.2795 86.8359 70.9928C86.5333 70.6847 86.1715 70.4411 85.7722 70.2767C85.3729 70.1123 84.9445 70.0305 84.5127 70.0361C84.0778 70.0048 83.6416 70.0749 83.2385 70.2409C82.8353 70.4069 82.4762 70.6643 82.1895 70.9928C81.8815 71.2953 81.6379 71.6572 81.4735 72.0565C81.3091 72.4557 81.2272 72.8842 81.2329 73.316V77.4157H81.0962Z" fill="#4F4F4F"/>
<defs>
<linearGradient id="paint0_linear" x1="49.6374" y1="4.43979" x2="82.9412" y2="64.5561" gradientUnits="userSpaceOnUse">
<stop offset="0.29" stop-color="#0182FE"/>
<stop offset="0.35" stop-color="#0685FE"/>
<stop offset="0.42" stop-color="#168CFE"/>
<stop offset="0.5" stop-color="#2F99FE"/>
<stop offset="0.59" stop-color="#52AAFE"/>
<stop offset="0.63" stop-color="#67B4FE"/>
</linearGradient>
<linearGradient id="paint1_linear" x1="42.5558" y1="40.0678" x2="59.4533" y2="17.7266" gradientUnits="userSpaceOnUse">
<stop stop-color="#0182FE"/>
<stop offset="0.3" stop-color="#1474F7"/>
<stop offset="0.83" stop-color="#3D56E8"/>
</linearGradient>
</defs>
</svg>
