<svg width="184" height="76" viewBox="0 0 184 76" fill="none" xmlns="http://www.w3.org/2000/svg">
<path d="M53.4675 48.8926C53.619 48.4868 53.9096 48.1479 54.2874 47.936C54.6712 47.7565 55.1035 47.7084 55.5174 47.7994C55.9247 47.9542 56.267 48.2435 56.4876 48.6193L60.0271 55.7256L63.5802 48.6193C63.7921 48.2414 64.131 47.9509 64.5369 47.7994C64.7382 47.7238 64.9545 47.6967 65.1682 47.7205C65.3819 47.7442 65.587 47.8181 65.7668 47.936C66.1447 48.1479 66.4352 48.4868 66.5867 48.8926C66.6623 49.0939 66.6894 49.3102 66.6656 49.524C66.6419 49.7377 66.568 49.9428 66.4501 50.1226L61.3937 60.0987C61.2434 60.3925 61.0043 60.6316 60.7104 60.782C60.5306 60.8999 60.3255 60.9737 60.1118 60.9975C59.8981 61.0212 59.6818 60.9942 59.4805 60.9186C59.2696 60.8628 59.074 60.7601 58.9084 60.6181C58.7427 60.4761 58.6113 60.2986 58.5239 60.0987L53.4675 50.1226C53.3442 49.7219 53.3442 49.2933 53.4675 48.8926ZM71.6431 59.4154C71.646 59.6477 71.5986 59.8778 71.5043 60.0901C71.4099 60.3024 71.2708 60.4918 71.0965 60.6453C70.9488 60.8266 70.7605 60.9705 70.5468 61.0655C70.3331 61.1604 70.1001 61.2038 69.8666 61.1919C69.6348 61.1913 69.4058 61.1424 69.194 61.0483C68.9822 60.9541 68.7924 60.8169 68.6366 60.6453C68.4682 60.487 68.3331 60.2967 68.2392 60.0855C68.1454 59.8743 68.0946 59.6465 68.09 59.4154V49.4393C68.0793 49.2254 68.124 49.0124 68.2197 48.8208C68.3155 48.6293 68.4591 48.4657 68.6366 48.346C68.7949 48.1776 68.9852 48.0425 69.1965 47.9486C69.4077 47.8547 69.6355 47.804 69.8666 47.7994C70.0983 47.8 70.3274 47.8489 70.5391 47.9431C70.7509 48.0372 70.9407 48.1744 71.0965 48.346C71.4094 48.6289 71.6046 49.0192 71.6431 49.4393V59.4154ZM83.4368 46.4328C83.434 46.2005 83.4813 45.9703 83.5757 45.758C83.67 45.5458 83.8091 45.3564 83.9834 45.2028C84.1312 45.0216 84.3195 44.8777 84.5331 44.7827C84.7468 44.6877 84.9798 44.6444 85.2134 44.6562C85.4272 44.6455 85.6403 44.6902 85.8318 44.7859C86.0233 44.8817 86.1869 45.0253 86.3066 45.2028C86.4751 45.3611 86.6102 45.5514 86.704 45.7627C86.7979 45.9739 86.8486 46.2017 86.8533 46.4328V54.4957C86.8584 55.3583 86.6919 56.2134 86.3634 57.011C86.035 57.8087 85.5511 58.5331 84.9401 59.1421C84.3231 59.7807 83.5779 60.2814 82.7535 60.6111C81.9291 60.9409 81.0441 61.0923 80.157 61.0553C79.2943 61.0604 78.4393 60.8939 77.6416 60.5654C76.8439 60.237 76.1195 59.7531 75.5106 59.1421C74.8846 58.5444 74.3909 57.822 74.0613 57.0217C73.7318 56.2214 73.5737 55.3608 73.5974 54.4957C73.5866 52.7127 74.2732 50.9963 75.5106 49.7126C76.1083 49.0866 76.8306 48.5929 77.6309 48.2633C78.4313 47.9338 79.2918 47.7757 80.157 47.7994C81.365 47.7765 82.553 48.1091 83.5735 48.756V46.4328H83.4368ZM82.4802 56.8189C82.7882 56.5163 83.0318 56.1544 83.1962 55.7551C83.3606 55.3559 83.4425 54.9274 83.4368 54.4957C83.4681 54.0608 83.3981 53.6246 83.232 53.2214C83.066 52.8183 82.8087 52.4592 82.4802 52.1724C82.1755 51.8634 81.8114 51.6193 81.4097 51.4548C81.0081 51.2904 80.5773 51.2091 80.1433 51.2158C79.7086 51.1856 79.2727 51.2561 78.8697 51.4221C78.4667 51.588 78.1075 51.8448 77.8201 52.1724C77.5121 52.475 77.2685 52.8369 77.1041 53.2362C76.9397 53.6354 76.8578 54.0639 76.8635 54.4957C76.8322 54.9305 76.9023 55.3667 77.0683 55.7699C77.2343 56.173 77.4917 56.5321 77.8201 56.8189C78.4414 57.4306 79.2783 57.7735 80.1502 57.7735C81.022 57.7735 81.859 57.4306 82.4802 56.8189ZM98.319 56.8189C98.5311 56.8189 98.7404 56.8682 98.9301 56.9631C99.1199 57.058 99.2849 57.1958 99.4122 57.3655C99.5491 57.5081 99.6463 57.684 99.6943 57.8758C99.7422 58.0675 99.7392 58.2685 99.6856 58.4588C99.6704 58.6832 99.6001 58.9003 99.4809 59.091C99.3617 59.2817 99.1973 59.4401 99.0023 59.552C98.4157 60.0744 97.713 60.4493 96.9524 60.6453C96.259 60.9127 95.5227 61.0516 94.7795 61.0553C93.915 61.0592 93.0582 60.8922 92.2585 60.5638C91.4587 60.2355 90.7318 59.7523 90.1194 59.1421C89.4934 58.5444 88.9997 57.822 88.6702 57.0217C88.3406 56.2214 88.1826 55.3608 88.2062 54.4957C88.1955 52.7127 88.8821 50.9963 90.1194 49.7126C90.7192 49.0855 91.4439 48.5913 92.2466 48.2617C93.0492 47.9322 93.9121 47.7747 94.7795 47.7994C96.5624 47.7886 98.2789 48.4752 99.5626 49.7126C100.201 50.3295 100.702 51.0747 101.032 51.8991C101.361 52.7236 101.513 53.6085 101.476 54.4957C101.476 55.3156 100.929 55.7256 99.8359 55.7256H91.732C91.7802 56.0299 91.8914 56.3207 92.0585 56.5796C92.2256 56.8384 92.4449 57.0596 92.7023 57.2288C93.3286 57.6955 94.0945 57.9363 94.8752 57.9121C95.6788 57.9101 96.4549 57.619 97.0617 57.0922C97.4448 56.9065 97.866 56.8129 98.2916 56.8189H98.319ZM97.909 53.1291C97.7415 52.4712 97.3493 51.8926 96.8003 51.4933C96.2513 51.094 95.58 50.8992 94.9025 50.9425C94.209 50.9003 93.5215 51.0932 92.9512 51.4899C92.3809 51.8867 91.961 52.4642 91.7593 53.1291H97.909ZM109.402 47.7994C111.185 47.7886 112.901 48.4752 114.185 49.7126C114.824 50.3295 115.324 51.0747 115.654 51.8991C115.984 52.7236 116.135 53.6085 116.098 54.4957C116.103 55.3583 115.937 56.2134 115.608 57.011C115.28 57.8087 114.796 58.5331 114.185 59.1421C113.568 59.7807 112.823 60.2814 111.999 60.6111C111.174 60.9409 110.289 61.0923 109.402 61.0553C108.538 61.0592 107.681 60.8922 106.881 60.5638C106.081 60.2355 105.354 59.7523 104.742 59.1421C104.116 58.5444 103.622 57.822 103.293 57.0217C102.963 56.2214 102.805 55.3608 102.829 54.4957C102.818 52.7127 103.505 50.9963 104.742 49.7126C105.354 49.1017 106.081 48.6181 106.881 48.2897C107.68 47.9614 108.537 47.7947 109.402 47.7994ZM107.079 52.0358C106.769 52.3377 106.523 52.6991 106.357 53.0983C106.19 53.4976 106.105 53.9264 106.109 54.359C106.08 54.7949 106.153 55.2314 106.321 55.6345C106.489 56.0375 106.749 56.3961 107.079 56.6822C107.381 56.9909 107.743 57.2349 108.142 57.3993C108.541 57.5638 108.97 57.6453 109.402 57.6388C109.837 57.6701 110.273 57.6001 110.676 57.434C111.079 57.268 111.439 57.0107 111.725 56.6822C112.033 56.3796 112.277 56.0178 112.441 55.6185C112.606 55.2192 112.687 54.7908 112.682 54.359C112.713 53.9241 112.643 53.4879 112.477 53.0848C112.311 52.6816 112.054 52.3225 111.725 52.0358C111.423 51.7277 111.061 51.4842 110.662 51.3198C110.262 51.1554 109.834 51.0735 109.402 51.0792C108.528 51.0991 107.691 51.4395 107.051 52.0358H107.079Z" fill="#0182FE"/>
<path d="M129.04 50.8053C129.049 51.0058 129.017 51.2059 128.947 51.3938C128.876 51.5817 128.768 51.7534 128.63 51.8986C128.35 52.2085 127.966 52.4034 127.55 52.4452C127.147 52.4555 126.755 52.3085 126.457 52.0353C125.592 51.2591 124.476 50.8222 123.314 50.8053C121.401 50.8053 120.444 51.352 120.581 52.3086C120.581 52.8552 121.537 53.2652 123.314 53.1285C124.635 53.0472 125.956 53.2815 127.168 53.8118C127.793 54.0581 128.327 54.4931 128.694 55.0563C129.062 55.6195 129.244 56.2831 129.218 56.955C129.211 57.6549 129 58.3376 128.612 58.9199C128.224 59.5023 127.674 59.9591 127.031 60.2348C125.869 60.9015 124.544 61.2327 123.205 61.1914C122.279 61.1793 121.36 61.0414 120.471 60.7814C119.455 60.5025 118.518 59.9874 117.738 59.2782C117.561 59.1584 117.417 58.9949 117.321 58.8033C117.226 58.6118 117.181 58.3988 117.192 58.1849C117.202 57.7431 117.344 57.3145 117.602 56.955C117.885 56.642 118.275 56.4469 118.695 56.4084C119.094 56.4002 119.481 56.5472 119.774 56.8183C120.74 57.6056 121.945 58.0395 123.191 58.0483C125.118 57.9116 126.061 57.5016 125.924 56.545C125.924 55.9984 124.968 55.5884 123.191 55.7251C121.835 55.7985 120.481 55.5649 119.228 55.0418C118.602 54.7955 118.069 54.3605 117.701 53.7973C117.334 53.2341 117.151 52.5705 117.178 51.8986C117.196 51.1477 117.441 50.4198 117.88 49.8103C118.319 49.2007 118.932 48.7378 119.638 48.4821C120.743 47.9378 121.959 47.6571 123.191 47.6622C124.072 47.6751 124.946 47.8132 125.787 48.0722C126.731 48.36 127.612 48.8237 128.384 49.4387C128.596 49.5961 128.767 49.8028 128.881 50.0409C128.995 50.279 129.05 50.5414 129.04 50.8053Z" fill="#C5C7CD"/>
<path d="M159.105 59.4155C159.108 59.6477 159.06 59.8779 158.966 60.0902C158.872 60.3025 158.733 60.4919 158.558 60.6454C158.275 60.9583 157.885 61.1535 157.465 61.192C157.144 61.2182 156.824 61.1388 156.553 60.9662C156.281 60.7935 156.074 60.5369 155.962 60.2354C154.905 60.902 153.671 61.2353 152.422 61.192C151.558 61.1959 150.701 61.0289 149.901 60.7006C149.102 60.3723 148.375 59.8891 147.762 59.2788C147.136 58.6811 146.643 57.9588 146.313 57.1584C145.983 56.3581 145.825 55.4976 145.849 54.6324C145.838 52.8495 146.525 51.133 147.762 49.8493C148.362 49.2223 149.087 48.728 149.889 48.3985C150.692 48.0689 151.555 47.9114 152.422 47.9361C154.215 47.9182 155.942 48.6053 157.233 49.8493C157.871 50.4663 158.372 51.2115 158.702 52.0359C159.032 52.8603 159.183 53.7452 159.146 54.6324V59.4155H159.105ZM152.422 51.0793C151.987 51.0479 151.551 51.118 151.148 51.284C150.745 51.45 150.386 51.7074 150.099 52.0359C149.789 52.3378 149.544 52.6992 149.377 53.0984C149.21 53.4977 149.126 53.9265 149.129 54.3591C149.1 54.7949 149.173 55.2315 149.341 55.6346C149.51 56.0376 149.769 56.3962 150.099 56.6823C150.401 56.991 150.763 57.235 151.162 57.3994C151.562 57.5639 151.99 57.6453 152.422 57.6389C152.857 57.6702 153.293 57.6001 153.697 57.4341C154.1 57.2681 154.459 57.0107 154.746 56.6823C155.054 56.3797 155.297 56.0178 155.462 55.6186C155.626 55.2193 155.708 54.7908 155.702 54.3591C155.733 53.9242 155.663 53.488 155.497 53.0848C155.331 52.6817 155.074 52.3226 154.746 52.0359C154.096 51.4726 153.28 51.1367 152.422 51.0793Z" fill="#C5C7CD"/>
<path d="M180.56 56.8189C180.773 56.8189 180.982 56.8683 181.172 56.9632C181.361 57.058 181.526 57.1958 181.654 57.3655C181.791 57.5081 181.888 57.684 181.936 57.8758C181.984 58.0676 181.981 58.2685 181.927 58.4588C181.912 58.6832 181.842 58.9004 181.722 59.0911C181.603 59.2818 181.439 59.4401 181.244 59.5521C180.657 60.0745 179.954 60.4493 179.194 60.6453C178.5 60.9127 177.764 61.0517 177.021 61.0553C176.156 61.0592 175.3 60.8922 174.5 60.5639C173.7 60.2355 172.973 59.7523 172.361 59.1421C171.735 58.5444 171.241 57.8221 170.912 57.0217C170.582 56.2214 170.424 55.3609 170.448 54.4957C170.437 52.7128 171.124 50.9963 172.361 49.7126C172.961 49.0856 173.685 48.5913 174.488 48.2618C175.291 47.9322 176.154 47.7747 177.021 47.7994C178.813 47.7815 180.541 48.4686 181.831 49.7126C182.47 50.3295 182.971 51.0747 183.3 51.8992C183.63 52.7236 183.782 53.6085 183.745 54.4957C183.745 55.3156 183.198 55.7256 182.105 55.7256H174.042C174.084 56.0301 174.192 56.3219 174.357 56.5812C174.522 56.8406 174.741 57.0615 174.998 57.2289C175.625 57.6955 176.391 57.9364 177.171 57.9122C177.975 57.9101 178.751 57.6191 179.358 57.0922C179.743 56.942 180.148 56.8499 180.56 56.8189ZM180.164 53.1291C179.991 52.4715 179.596 51.8941 179.045 51.4954C178.495 51.0967 177.823 50.9013 177.144 50.9425C176.452 50.8986 175.765 51.091 175.197 51.4882C174.628 51.8854 174.211 52.464 174.014 53.1291H180.164Z" fill="#C5C7CD"/>
<path d="M169.764 48.4826C169.969 48.5979 170.148 48.7547 170.289 48.9429C170.431 49.1311 170.531 49.3467 170.584 49.5758C170.675 49.9897 170.627 50.422 170.448 50.8058C170.332 51.0109 170.176 51.1897 169.987 51.3308C169.799 51.472 169.584 51.5724 169.354 51.6257C169.142 51.6822 168.92 51.6868 168.706 51.6393C168.492 51.5917 168.292 51.4933 168.124 51.3524C167.773 51.2331 167.401 51.1866 167.031 51.2157C166.31 51.226 165.623 51.5207 165.118 52.0357C164.851 52.2764 164.64 52.5721 164.498 52.9024C164.357 53.2327 164.288 53.5897 164.298 53.9489V59.6886C164.297 59.9203 164.248 60.1494 164.154 60.3612C164.06 60.573 163.923 60.7628 163.751 60.9185C163.596 61.0911 163.407 61.2291 163.195 61.3236C162.983 61.418 162.753 61.4669 162.521 61.4669C162.289 61.4669 162.06 61.418 161.848 61.3236C161.636 61.2291 161.447 61.0911 161.291 60.9185C161.123 60.7603 160.988 60.5699 160.894 60.3587C160.8 60.1475 160.749 59.9197 160.745 59.6886V53.9489C160.759 52.3515 161.403 50.8243 162.536 49.6985C163.67 48.5728 165.201 47.9395 166.799 47.9359C167.819 47.832 168.848 48.0216 169.764 48.4826Z" fill="#C5C7CD"/>
<path d="M134.096 59.4154C134.099 59.6477 134.052 59.8778 133.957 60.0901C133.863 60.3024 133.724 60.4918 133.55 60.6453C133.395 60.8179 133.205 60.9559 132.993 61.0503C132.781 61.1448 132.552 61.1936 132.32 61.1936C132.088 61.1936 131.858 61.1448 131.646 61.0503C131.434 60.9559 131.245 60.8179 131.09 60.6453C130.921 60.487 130.786 60.2967 130.692 60.0855C130.598 59.8743 130.548 59.6465 130.543 59.4154V46.4328C130.544 46.201 130.593 45.972 130.687 45.7602C130.781 45.5484 130.918 45.3586 131.09 45.2028C131.248 45.0344 131.438 44.8993 131.65 44.8054C131.861 44.7116 132.089 44.6608 132.32 44.6562C132.553 44.6444 132.786 44.6877 133 44.7827C133.214 44.8777 133.402 45.0216 133.55 45.2028C133.733 45.3483 133.879 45.5362 133.974 45.7505C134.07 45.9647 134.111 46.1988 134.096 46.4328V49.4393C135.143 48.8538 136.314 48.5259 137.513 48.4827C139.296 48.4719 141.012 49.1585 142.296 50.3959C142.936 51.0121 143.439 51.7569 143.771 52.5812C144.103 53.4056 144.257 54.2909 144.223 55.1789V59.4154C144.222 59.6484 144.172 59.8787 144.075 60.0907C143.979 60.3028 143.838 60.4919 143.662 60.6453C143.383 60.9552 142.998 61.1501 142.583 61.1919C142.349 61.1899 142.119 61.1404 141.905 61.0464C141.691 60.9525 141.499 60.816 141.339 60.6453C141.158 60.4976 141.014 60.3093 140.919 60.0956C140.824 59.8819 140.781 59.6489 140.793 59.4154V55.3156C140.824 54.8807 140.754 54.4445 140.588 54.0414C140.422 53.6382 140.164 53.2791 139.836 52.9924C139.533 52.6844 139.171 52.4408 138.772 52.2764C138.373 52.112 137.944 52.0301 137.513 52.0358C137.078 52.0044 136.642 52.0745 136.238 52.2405C135.835 52.4066 135.476 52.6639 135.19 52.9924C134.881 53.295 134.638 53.6568 134.474 54.0561C134.309 54.4554 134.227 54.8838 134.233 55.3156V59.4154H134.096Z" fill="#C5C7CD"/>
<path d="M38.9991 54.1358C39.0217 52.5973 38.6335 51.0807 37.8744 49.7424C37.1154 48.4041 36.013 47.2925 34.681 46.5223L13.8634 34.4772C12.4151 33.5157 10.7157 33.0019 8.9772 33C6.65678 33.0068 4.4284 33.9084 2.75617 35.5171C1.08393 37.1259 0.096735 39.3177 0.000182125 41.6361V66.2945C-0.00736434 67.4755 0.21968 68.6462 0.668145 69.7388C1.11661 70.8313 1.77756 71.8239 2.61266 72.659C3.44776 73.4941 4.44038 74.1551 5.53293 74.6036C6.62548 75.052 7.79621 75.2791 8.9772 75.2715C10.7781 75.2897 12.5378 74.7324 13.9998 73.6807L34.2265 61.9764C35.6643 61.2326 36.87 60.1079 37.7117 58.725C38.5535 57.3422 38.9988 55.7546 38.9991 54.1358Z" fill="url(#paint0_linear)"/>
<path d="M17.1588 62.3173C17.1588 62.2037 17.0451 62.2037 17.0451 62.09C16.5618 60.9848 15.8216 60.0108 14.8861 59.2492C14.6475 59.0219 0.113811 50.0449 0.113811 50.0449V66.4081C0.142405 67.6601 0.412492 68.8948 0.909242 70.0443C0.966139 70.1076 1.00189 70.1871 1.01151 70.2716C2.06632 72.4129 3.92854 74.0474 6.1885 74.8157C8.44846 75.5839 10.921 75.4229 13.0623 74.3681C15.2036 73.3133 16.8381 71.4511 17.6063 69.1911C18.3746 66.9311 18.2136 64.4586 17.1588 62.3173Z" fill="url(#paint1_linear)"/>
<defs>
<linearGradient id="paint0_linear" x1="6.10228" y1="36.0681" x2="33.7947" y2="86.0553" gradientUnits="userSpaceOnUse">
<stop offset="0.29" stop-color="#0182FE"/>
<stop offset="0.35" stop-color="#0685FE"/>
<stop offset="0.42" stop-color="#168CFE"/>
<stop offset="0.5" stop-color="#2F99FE"/>
<stop offset="0.59" stop-color="#52AAFE"/>
<stop offset="0.63" stop-color="#67B4FE"/>
</linearGradient>
<linearGradient id="paint1_linear" x1="0.213921" y1="65.693" x2="14.2643" y2="47.1161" gradientUnits="userSpaceOnUse">
<stop stop-color="#0182FE"/>
<stop offset="0.3" stop-color="#1474F7"/>
<stop offset="0.83" stop-color="#3D56E8"/>
</linearGradient>
</defs>
</svg>
