<svg width="13" height="23" viewBox="0 0 13 23" fill="none" xmlns="http://www.w3.org/2000/svg">
<path d="M6.15558 0.442627C4.69848 0.442627 3.51751 1.55981 3.51751 2.93819V12.9204C3.51751 14.2988 4.69848 15.416 6.15558 15.416C7.61267 15.416 8.79364 14.2988 8.79364 12.9204V2.93819C8.79364 1.55981 7.61267 0.442627 6.15558 0.442627ZM0.865701 8.74979C0.380721 8.75697 -0.00655703 9.13423 8.41523e-05 9.59302V12.9204C8.41523e-05 15.8436 2.30173 18.2699 5.27622 18.6768V20.4071H2.63815C2.32102 20.4029 2.02605 20.5605 1.86618 20.8196C1.7063 21.0787 1.7063 21.3992 1.86618 21.6583C2.02605 21.9175 2.32103 22.0751 2.63815 22.0708H6.00787C6.10284 22.0857 6.19973 22.0857 6.29469 22.0708H9.673C9.99013 22.0751 10.2851 21.9175 10.445 21.6583C10.6048 21.3992 10.6048 21.0787 10.445 20.8196C10.2851 20.5605 9.99013 20.4029 9.673 20.4071H7.03493V18.6768C10.0094 18.2699 12.3111 15.8436 12.3111 12.9204V9.59302C12.3156 9.29303 12.1489 9.01398 11.875 8.86275C11.6011 8.71151 11.2623 8.71151 10.9884 8.86275C10.7145 9.01398 10.5479 9.29303 10.5524 9.59302V12.9204C10.5524 15.1959 8.64725 17.0247 6.25519 17.0748C6.2176 17.0704 6.17973 17.0682 6.14184 17.0683C6.10968 17.0688 6.07757 17.071 6.04566 17.0748C3.65846 17.0197 1.7588 15.1926 1.7588 12.9204V9.59302C1.76205 9.36817 1.66895 9.15165 1.5007 8.9928C1.33245 8.83394 1.10338 8.74628 0.865701 8.74979Z" fill="#0182FE"/>
</svg>
