<svg width="18" height="14" viewBox="0 0 18 14" fill="none" xmlns="http://www.w3.org/2000/svg">
<path d="M8.99996 10.7501C7.0247 10.7501 5.42575 9.22117 5.27861 7.28367L2.54684 5.17247C2.18772 5.623 1.85726 6.0993 1.59059 6.62013C1.53102 6.73797 1.49998 6.86817 1.49998 7.00021C1.49998 7.13225 1.53102 7.26245 1.59059 7.38029C3.00283 10.1358 5.79866 12.0001 8.99996 12.0001C9.70074 12.0001 10.3768 11.8959 11.0283 11.7277L9.67705 10.6821C9.45388 10.7252 9.22725 10.748 8.99996 10.7501ZM17.1724 12.2631L14.2935 10.0381C15.168 9.3011 15.8872 8.39755 16.4093 7.38003C16.4689 7.26219 16.5 7.13199 16.5 6.99995C16.5 6.86791 16.4689 6.73771 16.4093 6.61987C14.9971 3.8644 12.2013 2.00008 8.99996 2.00008C7.65921 2.0017 6.34023 2.33924 5.16351 2.98185L1.85048 0.421172C1.80728 0.387554 1.75788 0.362779 1.7051 0.348262C1.65232 0.333745 1.59719 0.329771 1.54287 0.336567C1.48856 0.343363 1.43611 0.360795 1.38853 0.387868C1.34095 0.414941 1.29918 0.451124 1.26559 0.494349L0.754391 1.15242C0.686578 1.23966 0.656192 1.35026 0.669915 1.45989C0.683638 1.56953 0.740346 1.66923 0.827568 1.73706L16.1494 13.579C16.1926 13.6126 16.242 13.6374 16.2948 13.6519C16.3476 13.6664 16.4027 13.6704 16.4571 13.6636C16.5114 13.6568 16.5638 13.6394 16.6114 13.6123C16.659 13.5852 16.7008 13.549 16.7343 13.5058L17.2458 12.8477C17.3136 12.7605 17.3439 12.6498 17.3302 12.5402C17.3164 12.4306 17.2596 12.3309 17.1724 12.2631ZM12.388 8.56518L11.3645 7.77404C11.4507 7.52494 11.4965 7.26364 11.5 7.00008C11.505 6.61421 11.4196 6.23253 11.2504 5.88569C11.0812 5.53885 10.833 5.23653 10.5258 5.003C10.2186 4.76947 9.86085 4.61125 9.48139 4.54105C9.10192 4.47085 8.71129 4.49062 8.34085 4.59878C8.49788 4.81156 8.58283 5.06895 8.5833 5.33341C8.57941 5.42141 8.56596 5.50873 8.54319 5.59383L6.62627 4.11232C7.29215 3.55586 8.13218 3.25072 8.99996 3.25008C9.4925 3.2498 9.98026 3.34661 10.4354 3.53497C10.8904 3.72333 11.304 3.99954 11.6522 4.34782C12.0005 4.69609 12.2767 5.1096 12.4651 5.56469C12.6534 6.01979 12.7502 6.50754 12.75 7.00008C12.75 7.56336 12.6122 8.08836 12.388 8.56544V8.56518Z" fill="#9FA2B4"/>
</svg>
