<svg width="10" height="12" viewBox="0 0 10 12" fill="none" xmlns="http://www.w3.org/2000/svg">
<path d="M4.98503 0C3.11427 0 1.90258 0.766477 0.951272 2.13342C0.778702 2.38139 0.831905 2.72137 1.07263 2.90391L2.08368 3.67052C2.3268 3.85486 2.67271 3.81176 2.86305 3.5733C3.45013 2.83781 3.88562 2.41434 4.80266 2.41434C5.52369 2.41434 6.41554 2.87838 6.41554 3.57757C6.41554 4.10613 5.9792 4.37759 5.26726 4.77673C4.43704 5.2422 3.33838 5.82148 3.33838 7.27059V7.5C3.33838 7.81066 3.59022 8.0625 3.90088 8.0625H5.59942C5.91008 8.0625 6.16192 7.81066 6.16192 7.5V7.3647C6.16192 6.36016 9.09789 6.31833 9.09789 3.6C9.09791 1.55288 6.97443 0 4.98503 0ZM4.75016 8.75295C3.85494 8.75295 3.12662 9.48127 3.12662 10.3765C3.12662 11.2717 3.85494 12 4.75016 12C5.64538 12 6.3737 11.2717 6.3737 10.3765C6.3737 9.48124 5.64538 8.75295 4.75016 8.75295Z" fill="#C5C7CD"/>
</svg>
