<svg width="16" height="16" viewBox="0 0 16 16" fill="none" xmlns="http://www.w3.org/2000/svg">
<path d="M15.2313 9.86546L13.9 9.09671C14.0344 8.37171 14.0344 7.62796 13.9 6.90296L15.2313 6.13421C15.3844 6.04671 15.4531 5.86546 15.4031 5.69671C15.0563 4.58421 14.4656 3.57796 13.6938 2.74046C13.575 2.61233 13.3813 2.58108 13.2313 2.66858L11.9 3.43733C11.3406 2.95608 10.6969 2.58421 10 2.34046V0.806084C10 0.631084 9.87814 0.477959 9.70627 0.440459C8.55939 0.184209 7.38439 0.196709 6.29377 0.440459C6.12189 0.477959 6.00002 0.631084 6.00002 0.806084V2.34358C5.30627 2.59046 4.66252 2.96233 4.10002 3.44046L2.77189 2.67171C2.61877 2.58421 2.42814 2.61233 2.30939 2.74358C1.53752 3.57796 0.946895 4.58421 0.60002 5.69983C0.546895 5.86858 0.61877 6.04983 0.771895 6.13733L2.10314 6.90608C1.96877 7.63108 1.96877 8.37483 2.10314 9.09983L0.771895 9.86858C0.61877 9.95608 0.55002 10.1373 0.60002 10.3061C0.946895 11.4186 1.53752 12.4248 2.30939 13.2623C2.42814 13.3905 2.62189 13.4217 2.77189 13.3342L4.10314 12.5655C4.66252 13.0467 5.30627 13.4186 6.00314 13.6623V15.1998C6.00314 15.3748 6.12502 15.528 6.29689 15.5655C7.44377 15.8217 8.61877 15.8092 9.70939 15.5655C9.88127 15.528 10.0031 15.3748 10.0031 15.1998V13.6623C10.6969 13.4155 11.3406 13.0436 11.9031 12.5655L13.2344 13.3342C13.3875 13.4217 13.5781 13.3936 13.6969 13.2623C14.4688 12.428 15.0594 11.4217 15.4063 10.3061C15.4531 10.1342 15.3844 9.95296 15.2313 9.86546ZM8.00002 10.4998C6.62189 10.4998 5.50002 9.37796 5.50002 7.99983C5.50002 6.62171 6.62189 5.49983 8.00002 5.49983C9.37814 5.49983 10.5 6.62171 10.5 7.99983C10.5 9.37796 9.37814 10.4998 8.00002 10.4998Z" fill="#DDE2FF"/>
</svg>
