<svg width="24" height="24" viewBox="0 0 24 24" fill="none" xmlns="http://www.w3.org/2000/svg">
<circle cx="12" cy="12" r="12" fill="#EB5757"/>
<path fill-rule="evenodd" clip-rule="evenodd" d="M10.9583 11.9587V8.70866C10.9583 8.4095 11.2009 8.16699 11.5 8.16699C11.7992 8.16699 12.0417 8.4095 12.0417 8.70866V11.9587H15.2917C15.5908 11.9587 15.8333 12.2012 15.8333 12.5003C15.8333 12.7995 15.5908 13.042 15.2917 13.042H12.0417V16.292C12.0417 16.5911 11.7992 16.8337 11.5 16.8337C11.2009 16.8337 10.9583 16.5911 10.9583 16.292V13.042H7.70834C7.40918 13.042 7.16667 12.7995 7.16667 12.5003C7.16667 12.2012 7.40918 11.9587 7.70834 11.9587H10.9583Z" fill="white"/>
<mask id="mask0" mask-type="alpha" maskUnits="userSpaceOnUse" x="7" y="8" width="9" height="9">
<path fill-rule="evenodd" clip-rule="evenodd" d="M10.9583 11.9587V8.70866C10.9583 8.4095 11.2009 8.16699 11.5 8.16699C11.7992 8.16699 12.0417 8.4095 12.0417 8.70866V11.9587H15.2917C15.5908 11.9587 15.8333 12.2012 15.8333 12.5003C15.8333 12.7995 15.5908 13.042 15.2917 13.042H12.0417V16.292C12.0417 16.5911 11.7992 16.8337 11.5 16.8337C11.2009 16.8337 10.9583 16.5911 10.9583 16.292V13.042H7.70834C7.40918 13.042 7.16667 12.7995 7.16667 12.5003C7.16667 12.2012 7.40918 11.9587 7.70834 11.9587H10.9583Z" fill="white"/>
</mask>
<g mask="url(#mask0)">
<rect x="5" y="6" width="13" height="13" fill="white"/>
</g>
</svg>
