<svg width="16" height="16" viewBox="0 0 16 16" fill="none" xmlns="http://www.w3.org/2000/svg">
<path opacity="0.4" d="M1.23077 0C0.550772 0 0 0.550771 0 1.23077V12.3077C0 12.9877 0.550771 13.5385 1.23077 13.5385H10.2596L8.65267 11.9327C8.46929 11.7493 8.34895 11.512 8.30772 11.256L8.18152 10.4616H3.07693C2.73663 10.4616 2.46155 10.1865 2.46155 9.84618C2.46155 9.50588 2.73663 9.2308 3.07693 9.2308H8.00844C8.00844 8.90711 8.12799 8.5926 8.3606 8.3606C8.59322 8.1286 8.90711 8.00002 9.2308 8.00002C9.29541 8.00002 9.36089 8.00519 9.42551 8.01565L11.256 8.30892C11.512 8.35015 11.7481 8.47049 11.9315 8.65387L13.5385 10.2596V1.23077C13.5385 0.550772 12.9877 1.02362e-06 12.3077 1.02362e-06L1.23077 0ZM3.07693 3.07693H10.4616C10.8019 3.07693 11.077 3.35201 11.077 3.69232C11.077 4.03263 10.8019 4.3077 10.4616 4.3077H3.07693C2.73662 4.3077 2.46155 4.03263 2.46155 3.69232C2.46155 3.35201 2.73662 3.07693 3.07693 3.07693ZM3.07693 6.15387H8.61541C8.95572 6.15387 9.2308 6.42894 9.2308 6.76925C9.2308 7.10956 8.95572 7.38464 8.61541 7.38464H3.07693C2.73662 7.38464 2.46155 7.10956 2.46155 6.76925C2.46155 6.42894 2.73662 6.15387 3.07693 6.15387ZM9.2308 9.2308L9.52286 11.0625L12.9496 14.488L14.488 12.9496L11.0613 9.52407L9.2308 9.2308ZM15.3582 13.8198L13.8198 15.3582L14.1431 15.6815C14.5677 16.1062 15.2569 16.1062 15.6815 15.6815C16.1062 15.2569 16.1062 14.5677 15.6815 14.1431L15.3582 13.8198Z" fill="#9FA2B4"/>
</svg>
