<svg width="16" height="16" viewBox="0 0 16 16" fill="none" xmlns="http://www.w3.org/2000/svg">
<path opacity="0.4" d="M2 6.69918e-05C1.75958 -0.00333299 1.53595 0.122984 1.41474 0.330647C1.29354 0.538311 1.29354 0.79515 1.41474 1.00281C1.53595 1.21048 1.75958 1.3368 2 1.33339H14C14.2404 1.33679 14.4641 1.21048 14.5853 1.00281C14.7065 0.79515 14.7065 0.538311 14.5853 0.330647C14.4641 0.122983 14.2404 -0.00333416 14 6.69918e-05H2ZM1.33333 2.66672C1.09291 2.66332 0.869279 2.78964 0.748075 2.9973C0.626871 3.20497 0.626871 3.4618 0.748075 3.66947C0.86928 3.87713 1.09291 4.00345 1.33333 4.00005H14.6667C14.9071 4.00345 15.1307 3.87713 15.2519 3.66947C15.3731 3.4618 15.3731 3.20497 15.2519 2.9973C15.1307 2.78964 14.9071 2.66332 14.6667 2.66672H1.33333ZM1.33333 5.33338C0.596667 5.33338 0 5.93004 0 6.66671V14.6667C0 15.4033 0.596666 16 1.33333 16H14.6667C15.4033 16 16 15.4033 16 14.6667V6.66671C16 5.93004 15.4033 5.33338 14.6667 5.33338H1.33333ZM6.66667 8.00003C6.80267 8.00003 6.92201 8.05113 7.02734 8.12113L10.3646 10.1237C10.5426 10.2437 10.6667 10.436 10.6667 10.6667C10.6667 10.8974 10.5426 11.0897 10.3646 11.2097L7.02734 13.2123C6.92201 13.2823 6.80267 13.3333 6.66667 13.3333C6.29867 13.3333 6 13.0347 6 12.6667V8.6667C6 8.2987 6.29867 8.00003 6.66667 8.00003Z" fill="#9FA2B4"/>
</svg>
