<svg width="16" height="16" viewBox="0 0 16 16" fill="none" xmlns="http://www.w3.org/2000/svg">
<g clip-path="url(#clip0)">
<path opacity="0.4" d="M5.035 11.3324C4.76344 11.0609 4.905 11.1374 4.25 10.9621C3.95281 10.8824 3.69156 10.7293 3.45531 10.5459L2.0375 14.0221C1.90031 14.3587 2.15656 14.7243 2.51969 14.7106L4.16625 14.6478L5.29875 15.844C5.54875 16.1078 5.9875 16.0256 6.12469 15.689L7.75125 11.7009C7.4125 11.8896 7.03656 12.0003 6.64781 12.0003C6.03844 12.0003 5.46594 11.7631 5.035 11.3324ZM13.9625 14.0221L12.5447 10.5459C12.3084 10.7296 12.0472 10.8824 11.75 10.9621C11.0916 11.1384 11.2359 11.0615 10.965 11.3324C10.5341 11.7631 9.96125 12.0003 9.35188 12.0003C8.96313 12.0003 8.58719 11.8893 8.24844 11.7009L9.875 15.689C10.0122 16.0256 10.4513 16.1078 10.7009 15.844L11.8338 14.6478L13.4803 14.7106C13.8434 14.7243 14.0997 14.3584 13.9625 14.0221ZM10.2188 10.6253C10.6963 10.1393 10.7509 10.1812 11.4309 9.99588C11.865 9.87744 12.2044 9.53213 12.3206 9.09025C12.5544 8.20275 12.4938 8.30994 13.1316 7.66056C13.4494 7.33713 13.5734 6.86556 13.4572 6.42369C13.2238 5.53681 13.2234 5.66056 13.4572 4.77275C13.5734 4.33088 13.4494 3.85931 13.1316 3.53588C12.4938 2.8865 12.5544 2.99338 12.3206 2.10619C12.2044 1.66431 11.865 1.319 11.4309 1.20056C10.5597 0.962752 10.6647 1.02494 10.0263 0.375252C9.70844 0.0518145 9.245 -0.074748 8.81094 0.0436895C7.94 0.281189 8.06156 0.281502 7.18906 0.0436895C6.755 -0.074748 6.29156 0.051502 5.97375 0.375252C5.33594 1.02463 5.44094 0.962752 4.56938 1.20056C4.13531 1.319 3.79594 1.66431 3.67969 2.10619C3.44625 2.99338 3.50656 2.8865 2.86875 3.53588C2.55094 3.85931 2.42656 4.33088 2.54313 4.77275C2.77656 5.659 2.77688 5.53525 2.54313 6.42338C2.42688 6.86525 2.55094 7.33681 2.86875 7.66056C3.50656 8.30994 3.44594 8.20275 3.67969 9.09025C3.79594 9.53213 4.13531 9.87744 4.56938 9.99588C5.26875 10.1865 5.32094 10.1565 5.78125 10.6253C6.19469 11.0462 6.83875 11.1215 7.33563 10.8071C7.53432 10.681 7.76481 10.614 8.00016 10.614C8.23551 10.614 8.466 10.681 8.66469 10.8071C9.16125 11.1215 9.80531 11.0462 10.2188 10.6253ZM5.05188 5.499C5.05188 3.84181 6.37188 2.49838 8 2.49838C9.62813 2.49838 10.9481 3.84181 10.9481 5.499C10.9481 7.15619 9.62813 8.49963 8 8.49963C6.37188 8.49963 5.05188 7.15619 5.05188 5.499Z" fill="#9FA2B4"/>
</g>
<defs>
<clipPath id="clip0">
<rect width="16" height="16" fill="white"/>
</clipPath>
</defs>
</svg>
