<svg width="18" height="20" viewBox="0 0 18 20" fill="none" xmlns="http://www.w3.org/2000/svg">
<path opacity="0.4" d="M9 10C11.7617 10 14 7.76172 14 5C14 2.23828 11.7617 0 9 0C6.23828 0 4 2.23828 4 5C4 7.76172 6.23828 10 9 10ZM12.7422 11.2734L10.875 18.75L9.625 13.4375L10.875 11.25H7.125L8.375 13.4375L7.125 18.75L5.25781 11.2734C2.47266 11.4062 0.25 13.6836 0.25 16.5V18.125C0.25 19.1602 1.08984 20 2.125 20H15.875C16.9102 20 17.75 19.1602 17.75 18.125V16.5C17.75 13.6836 15.5273 11.4062 12.7422 11.2734Z" fill="#DDE2FF"/>
</svg>
