<svg width="16" height="16" viewBox="0 0 16 16" fill="none" xmlns="http://www.w3.org/2000/svg">
<path opacity="0.4" d="M15.2312 9.86546L13.9 9.09671C14.0344 8.37171 14.0344 7.62796 13.9 6.90296L15.2312 6.13421C15.3844 6.04671 15.4531 5.86546 15.4031 5.69671C15.0562 4.58421 14.4656 3.57796 13.6937 2.74046C13.575 2.61233 13.3812 2.58108 13.2312 2.66858L11.9 3.43733C11.3406 2.95608 10.6969 2.58421 9.99999 2.34046V0.806084C9.99999 0.631084 9.87812 0.477959 9.70624 0.440459C8.55937 0.184209 7.38437 0.196709 6.29374 0.440459C6.12187 0.477959 5.99999 0.631084 5.99999 0.806084V2.34358C5.30624 2.59046 4.6625 2.96233 4.1 3.44046L2.77187 2.67171C2.61875 2.58421 2.42812 2.61233 2.30937 2.74358C1.5375 3.57796 0.946872 4.58421 0.599997 5.69983C0.546872 5.86858 0.618747 6.04983 0.771872 6.13733L2.10312 6.90608C1.96875 7.63108 1.96875 8.37483 2.10312 9.09983L0.771872 9.86858C0.618747 9.95608 0.549997 10.1373 0.599997 10.3061C0.946872 11.4186 1.5375 12.4248 2.30937 13.2623C2.42812 13.3905 2.62187 13.4217 2.77187 13.3342L4.10312 12.5655C4.6625 13.0467 5.30625 13.4186 6.00312 13.6623V15.1998C6.00312 15.3748 6.12499 15.528 6.29687 15.5655C7.44374 15.8217 8.61874 15.8092 9.70937 15.5655C9.88124 15.528 10.0031 15.3748 10.0031 15.1998V13.6623C10.6969 13.4155 11.3406 13.0436 11.9031 12.5655L13.2344 13.3342C13.3875 13.4217 13.5781 13.3936 13.6969 13.2623C14.4687 12.428 15.0594 11.4217 15.4062 10.3061C15.4531 10.1342 15.3844 9.95296 15.2312 9.86546ZM7.99999 10.4998C6.62187 10.4998 5.49999 9.37796 5.49999 7.99983C5.49999 6.62171 6.62187 5.49983 7.99999 5.49983C9.37812 5.49983 10.5 6.62171 10.5 7.99983C10.5 9.37796 9.37812 10.4998 7.99999 10.4998Z" fill="#9FA2B4"/>
</svg>
