<svg width="64" height="64" viewBox="0 0 64 64" fill="none" xmlns="http://www.w3.org/2000/svg">
<circle opacity="0.12" cx="32" cy="32" r="32" fill="#0182FE"/>
<g clip-path="url(#clip0)">
<path d="M39.4953 34.4519L40.6156 31.5175C40.8031 31.0253 40.4422 30.5003 39.9125 30.5003H37.1703C37.6859 29.6144 38.0047 28.5972 38.0047 27.5003V27.4862C39.8422 27.1206 41.0047 26.5909 41.0047 26.0003C41.0047 25.3769 39.725 24.8237 37.7188 24.4534C37.2875 22.9159 36.4531 21.369 35.8156 20.5722C35.3703 20.0144 34.6016 19.8409 33.9641 20.1597L32.6703 20.8065C32.2484 21.0175 31.7516 21.0175 31.3297 20.8065L30.0359 20.1597C29.3984 19.8409 28.6297 20.0144 28.1844 20.5722C27.5516 21.369 26.7125 22.9159 26.2812 24.4534C24.2797 24.8237 23 25.3769 23 26.0003C23 26.5909 24.1625 27.1206 26 27.4862V27.5003C26 28.5972 26.3188 29.6144 26.8344 30.5003H24.1391C23.6 30.5003 23.2391 31.0487 23.45 31.5456L24.6594 34.3675C22.7797 35.4597 21.5 37.4706 21.5 39.8003V41.9003C21.5 43.0581 22.4422 44.0003 23.6 44.0003H40.4C41.5578 44.0003 42.5 43.0581 42.5 41.9003V39.8003C42.5 37.5315 41.2906 35.5628 39.4953 34.4519ZM29.75 42.5003L27.8 33.5003L30.125 35.0003L31.25 36.8753L29.75 42.5003ZM34.25 42.5003L32.75 36.8753L33.875 35.0003L36.2 33.5003L34.25 42.5003ZM36.2047 28.5081C36.0219 29.0659 35.8766 29.6612 35.4313 30.0737C34.9578 30.5097 33.1812 31.1237 32.4312 28.9019C32.3 28.5081 31.7094 28.5081 31.5734 28.9019C30.7766 31.255 28.9484 30.4206 28.5734 30.0737C28.1281 29.6612 27.9781 29.0659 27.8 28.5081C27.7625 28.3909 27.5047 28.2409 27.5047 28.2362V27.73C28.8313 27.8987 30.3641 28.0019 32.0047 28.0019C33.6453 28.0019 35.1781 27.9034 36.5047 27.73V28.2362C36.5 28.2409 36.2422 28.3862 36.2047 28.5081Z" fill="#0182FE"/>
</g>
<defs>
<clipPath id="clip0">
<rect width="24" height="24" fill="white" transform="translate(20 20)"/>
</clipPath>
</defs>
</svg>
