<svg width="64" height="64" viewBox="0 0 64 64" fill="none" xmlns="http://www.w3.org/2000/svg">
<circle opacity="0.12" cx="32" cy="32" r="32" fill="#0182FE"/>
<g clip-path="url(#clip0)">
<path d="M36.4719 35.0283L32 39.5002L27.5281 35.0283C24.1766 35.1736 21.5 37.9158 21.5 41.3002V41.7502C21.5 42.9924 22.5078 44.0002 23.75 44.0002H40.25C41.4922 44.0002 42.5 42.9924 42.5 41.7502V41.3002C42.5 37.9158 39.8234 35.1736 36.4719 35.0283ZM22.1375 23.7408L22.4375 23.8111V26.5486C22.1094 26.7455 21.875 27.0877 21.875 27.5002C21.875 27.8939 22.0906 28.2221 22.3953 28.4236L21.6641 31.3439C21.5844 31.6674 21.7625 32.0002 22.0203 32.0002H23.9797C24.2375 32.0002 24.4156 31.6674 24.3359 31.3439L23.6047 28.4236C23.9094 28.2221 24.125 27.8939 24.125 27.5002C24.125 27.0877 23.8906 26.7455 23.5625 26.5486V24.083L26.6562 24.8283C26.2531 25.6346 26 26.5346 26 27.5002C26 30.8143 28.6859 33.5002 32 33.5002C35.3141 33.5002 38 30.8143 38 27.5002C38 26.5346 37.7516 25.6346 37.3438 24.8283L41.8578 23.7408C42.7109 23.5346 42.7109 22.4705 41.8578 22.2643L32.9328 20.108C32.3234 19.9627 31.6812 19.9627 31.0719 20.108L22.1375 22.2596C21.2891 22.4658 21.2891 23.5346 22.1375 23.7408Z" fill="#0182FE"/>
</g>
<defs>
<clipPath id="clip0">
<rect width="24" height="24" fill="white" transform="translate(20 20)"/>
</clipPath>
</defs>
</svg>
