<svg width="64" height="64" viewBox="0 0 64 64" fill="none" xmlns="http://www.w3.org/2000/svg">
<circle cx="32" cy="32" r="32" fill="#0182FE"/>
<path d="M32 32C35.3141 32 38 29.3141 38 26C38 22.6859 35.3141 20 32 20C28.6859 20 26 22.6859 26 26C26 29.3141 28.6859 32 32 32ZM36.2 33.5H35.4172C34.3766 33.9781 33.2188 34.25 32 34.25C30.7812 34.25 29.6281 33.9781 28.5828 33.5H27.8C24.3219 33.5 21.5 36.3219 21.5 39.8V41.75C21.5 42.9922 22.5078 44 23.75 44H40.25C41.4922 44 42.5 42.9922 42.5 41.75V39.8C42.5 36.3219 39.6781 33.5 36.2 33.5Z" fill="#DDE2FF"/>
</svg>
