<svg width="7" height="25" viewBox="0 0 7 25" fill="none" xmlns="http://www.w3.org/2000/svg">
<path d="M3.50008 6.33341C5.19591 6.33341 6.58341 4.94591 6.58341 3.25008C6.58341 1.55425 5.19591 0.166748 3.50008 0.166748C1.80425 0.166748 0.416748 1.55425 0.416748 3.25008C0.416748 4.94591 1.80425 6.33341 3.50008 6.33341ZM3.50008 9.41675C1.80425 9.41675 0.416748 10.8042 0.416748 12.5001C0.416748 14.1959 1.80425 15.5834 3.50008 15.5834C5.19591 15.5834 6.58341 14.1959 6.58341 12.5001C6.58341 10.8042 5.19591 9.41675 3.50008 9.41675ZM3.50008 18.6667C1.80425 18.6667 0.416748 20.0542 0.416748 21.7501C0.416748 23.4459 1.80425 24.8334 3.50008 24.8334C5.19591 24.8334 6.58341 23.4459 6.58341 21.7501C6.58341 20.0542 5.19591 18.6667 3.50008 18.6667Z" fill="#007AFF"/>
</svg>
