<svg width="136" height="32" viewBox="0 0 136 32" fill="none" xmlns="http://www.w3.org/2000/svg">
<path d="M40.0678 12.0838C40.179 11.7894 40.392 11.5435 40.6691 11.3898C40.9506 11.2595 41.2675 11.2247 41.571 11.2906C41.8698 11.403 42.1208 11.6129 42.2826 11.8855L44.8781 17.0414L47.4837 11.8855C47.639 11.6114 47.8876 11.4006 48.1852 11.2906C48.3328 11.2358 48.4914 11.2162 48.6481 11.2334C48.8048 11.2506 48.9552 11.3042 49.0871 11.3898C49.3642 11.5435 49.5772 11.7894 49.6884 12.0838C49.7438 12.2299 49.7636 12.3868 49.7462 12.5419C49.7288 12.6969 49.6747 12.8457 49.5882 12.9762L45.8802 20.2142C45.77 20.4274 45.5947 20.6009 45.3792 20.71C45.2473 20.7955 45.0969 20.8491 44.9402 20.8663C44.7835 20.8836 44.6249 20.864 44.4772 20.8091C44.3226 20.7686 44.1792 20.6941 44.0577 20.5911C43.9362 20.4881 43.8398 20.3592 43.7757 20.2142L40.0678 12.9762C39.9774 12.6855 39.9774 12.3746 40.0678 12.0838ZM53.3963 19.7184C53.3984 19.887 53.3637 20.054 53.2945 20.208C53.2253 20.362 53.1233 20.4994 52.9955 20.6108C52.8871 20.7423 52.749 20.8467 52.5923 20.9156C52.4357 20.9845 52.2648 21.016 52.0935 21.0074C51.9236 21.007 51.7556 20.9714 51.6003 20.9032C51.445 20.8349 51.3058 20.7353 51.1916 20.6108C51.0681 20.496 50.969 20.3579 50.9002 20.2046C50.8313 20.0514 50.7941 19.8861 50.7907 19.7184V12.4804C50.7829 12.3253 50.8156 12.1707 50.8859 12.0318C50.9561 11.8928 51.0614 11.7741 51.1916 11.6872C51.3077 11.565 51.4472 11.467 51.6021 11.3989C51.757 11.3308 51.9241 11.294 52.0935 11.2906C52.2635 11.2911 52.4314 11.3266 52.5867 11.3949C52.742 11.4632 52.8812 11.5627 52.9955 11.6872C53.2249 11.8925 53.368 12.1756 53.3963 12.4804V19.7184ZM62.0448 10.2991C62.0427 10.1306 62.0774 9.96361 62.1466 9.8096C62.2158 9.65558 62.3178 9.51817 62.4457 9.40677C62.554 9.27527 62.6921 9.17084 62.8488 9.10194C63.0054 9.03304 63.1763 9.0016 63.3476 9.01017C63.5044 9.00239 63.6606 9.03481 63.8011 9.10429C63.9415 9.17377 64.0615 9.27797 64.1493 9.40677C64.2728 9.52161 64.3719 9.6597 64.4407 9.81294C64.5095 9.96618 64.5468 10.1315 64.5502 10.2991V16.149C64.5539 16.7749 64.4318 17.3953 64.1909 17.974C63.9501 18.5528 63.5953 19.0784 63.1472 19.5201C62.6948 19.9835 62.1483 20.3467 61.5437 20.586C60.9392 20.8253 60.2902 20.9351 59.6397 20.9083C59.0071 20.912 58.38 20.7912 57.7951 20.5529C57.2101 20.3145 56.6789 19.9635 56.2324 19.5201C55.7733 19.0865 55.4113 18.5624 55.1696 17.9818C54.928 17.4011 54.812 16.7767 54.8294 16.149C54.8215 14.8555 55.325 13.6101 56.2324 12.6787C56.6707 12.2246 57.2004 11.8664 57.7873 11.6273C58.3742 11.3882 59.0052 11.2735 59.6397 11.2906C60.5255 11.274 61.3967 11.5154 62.145 11.9847V10.2991H62.0448ZM61.3433 17.8346C61.5692 17.615 61.7478 17.3525 61.8684 17.0628C61.9889 16.7731 62.0489 16.4623 62.0448 16.149C62.0678 15.8335 62.0164 15.517 61.8946 15.2245C61.7729 14.932 61.5842 14.6715 61.3433 14.4635C61.1199 14.2392 60.8528 14.0621 60.5583 13.9428C60.2638 13.8235 59.9479 13.7645 59.6296 13.7694C59.3108 13.7474 58.9912 13.7986 58.6957 13.919C58.4001 14.0394 58.1367 14.2257 57.926 14.4635C57.7001 14.683 57.5215 14.9455 57.4009 15.2352C57.2804 15.5249 57.2203 15.8358 57.2245 16.149C57.2015 16.4645 57.2529 16.781 57.3746 17.0735C57.4964 17.366 57.6851 17.6266 57.926 17.8346C58.3816 18.2784 58.9953 18.5272 59.6346 18.5272C60.274 18.5272 60.8877 18.2784 61.3433 17.8346ZM72.9581 17.8346C73.1137 17.8346 73.2671 17.8704 73.4063 17.9393C73.5455 18.0081 73.6665 18.108 73.7598 18.2312C73.8602 18.3347 73.9315 18.4623 73.9667 18.6014C74.0018 18.7406 73.9996 18.8864 73.9603 19.0244C73.9492 19.1872 73.8976 19.3448 73.8102 19.4831C73.7228 19.6215 73.6022 19.7364 73.4592 19.8176C73.0291 20.1966 72.5137 20.4686 71.956 20.6108C71.4475 20.8048 70.9076 20.9056 70.3626 20.9083C69.7286 20.9111 69.1003 20.7899 68.5139 20.5517C67.9274 20.3135 67.3943 19.9629 66.9453 19.5201C66.4862 19.0865 66.1242 18.5624 65.8825 17.9818C65.6409 17.4011 65.5249 16.7767 65.5423 16.149C65.5344 14.8555 66.0379 13.6101 66.9453 12.6787C67.3851 12.2238 67.9165 11.8652 68.5051 11.6261C69.0938 11.387 69.7265 11.2727 70.3626 11.2906C71.67 11.2829 72.9287 11.781 73.8701 12.6787C74.3384 13.1263 74.7055 13.667 74.9474 14.2652C75.1892 14.8633 75.3002 15.5054 75.2731 16.149C75.2731 16.7439 74.8722 17.0414 74.0705 17.0414H68.1278C68.1632 17.2622 68.2447 17.4732 68.3672 17.661C68.4898 17.8488 68.6505 18.0092 68.8393 18.132C69.2986 18.4706 69.8602 18.6454 70.4327 18.6278C71.022 18.6263 71.5912 18.4152 72.0362 18.0329C72.3171 17.8982 72.6259 17.8303 72.9381 17.8346H72.9581ZM72.6575 15.1575C72.5346 14.6802 72.247 14.2604 71.8444 13.9707C71.4418 13.681 70.9496 13.5397 70.4528 13.5711C69.9442 13.5405 69.4401 13.6804 69.0219 13.9683C68.6036 14.2561 68.2957 14.6751 68.1478 15.1575H72.6575ZM81.0855 11.2906C82.3929 11.2829 83.6516 11.781 84.593 12.6787C85.0613 13.1263 85.4285 13.667 85.6703 14.2652C85.9121 14.8633 86.0231 15.5054 85.996 16.149C85.9998 16.7749 85.8776 17.3953 85.6368 17.974C85.3959 18.5528 85.0411 19.0784 84.593 19.5201C84.1406 19.9835 83.5941 20.3467 82.9896 20.586C82.385 20.8253 81.7361 20.9351 81.0855 20.9083C80.4515 20.9111 79.8233 20.7899 79.2368 20.5517C78.6503 20.3135 78.1172 19.9629 77.6682 19.5201C77.2091 19.0865 76.8471 18.5624 76.6054 17.9818C76.3638 17.4011 76.2479 16.7767 76.2652 16.149C76.2573 14.8555 76.7608 13.6101 77.6682 12.6787C78.1169 12.2355 78.6499 11.8847 79.2365 11.6464C79.823 11.4082 80.4515 11.2872 81.0855 11.2906ZM79.3819 14.3643C79.1546 14.5834 78.9745 14.8456 78.8522 15.1352C78.7299 15.4249 78.6681 15.736 78.6703 16.0499C78.6494 16.3661 78.7027 16.6828 78.8261 16.9753C78.9496 17.2677 79.1398 17.5279 79.3819 17.7354C79.6034 17.9594 79.8687 18.1364 80.1616 18.2557C80.4544 18.3751 80.7688 18.4342 81.0855 18.4295C81.4044 18.4522 81.7243 18.4014 82.0199 18.2809C82.3156 18.1605 82.5789 17.9737 82.7891 17.7354C83.015 17.5159 83.1936 17.2534 83.3142 16.9637C83.4348 16.674 83.4948 16.3631 83.4906 16.0499C83.5136 15.7344 83.4622 15.4179 83.3405 15.1254C83.2187 14.8329 83.03 14.5723 82.7891 14.3643C82.5672 14.1408 82.3019 13.9641 82.0091 13.8448C81.7163 13.7255 81.4021 13.6661 81.0855 13.6703C80.4444 13.6847 79.8309 13.9317 79.3618 14.3643H79.3819Z" fill="#0182FE"/>
<path d="M95.507 13.1789C95.5135 13.3273 95.49 13.4755 95.4378 13.6145C95.3857 13.7535 95.306 13.8806 95.2035 13.9881C94.9967 14.2175 94.7118 14.3617 94.4045 14.3927C94.1056 14.4003 93.8155 14.2915 93.5953 14.0893C92.9553 13.5148 92.1289 13.1914 91.269 13.1789C89.8529 13.1789 89.1449 13.5835 89.246 14.2916C89.246 14.6961 89.9541 14.9996 91.269 14.8984C92.2464 14.8383 93.2241 15.0116 94.1213 15.4042C94.5844 15.5865 94.9792 15.9084 95.2511 16.3252C95.523 16.7421 95.6584 17.2332 95.6385 17.7305C95.6333 18.2485 95.4775 18.7538 95.1901 19.1848C94.9028 19.6158 94.4963 19.954 94.0201 20.158C93.1598 20.6515 92.1794 20.8966 91.188 20.866C90.5031 20.8571 89.8226 20.755 89.1651 20.5626C88.4126 20.3561 87.7195 19.9749 87.1422 19.45C87.0108 19.3614 86.9045 19.2403 86.8336 19.0986C86.7628 18.9568 86.7297 18.7991 86.7376 18.6408C86.745 18.3138 86.8508 17.9966 87.0411 17.7305C87.2505 17.4989 87.5393 17.3545 87.8502 17.3259C88.1458 17.3199 88.4322 17.4287 88.6493 17.6294C89.3638 18.2121 90.2559 18.5332 91.1779 18.5397C92.6041 18.4385 93.302 18.1351 93.2009 17.4271C93.2009 17.0225 92.4928 16.7191 91.1779 16.8202C90.1746 16.8745 89.1719 16.7017 88.2447 16.3145C87.7816 16.1322 87.3867 15.8103 87.1149 15.3934C86.843 14.9765 86.7076 14.4854 86.7275 13.9881C86.7411 13.4323 86.9222 12.8936 87.2471 12.4425C87.5719 11.9913 88.0254 11.6487 88.5481 11.4595C89.366 11.0566 90.2662 10.8489 91.1779 10.8526C91.8297 10.8622 92.4767 10.9643 93.0997 11.156C93.7983 11.3691 94.4503 11.7123 95.0215 12.1675C95.1785 12.284 95.3047 12.437 95.3893 12.6132C95.4739 12.7894 95.5143 12.9836 95.507 13.1789Z" fill="#4B506D"/>
<path d="M117.759 19.5509C117.761 19.7228 117.726 19.8931 117.656 20.0502C117.586 20.2074 117.483 20.3475 117.354 20.4612C117.145 20.6928 116.856 20.8372 116.545 20.8658C116.308 20.8851 116.071 20.8264 115.87 20.6986C115.669 20.5708 115.515 20.3809 115.432 20.1577C114.65 20.6511 113.737 20.8978 112.813 20.8658C112.173 20.8687 111.539 20.745 110.947 20.502C110.355 20.259 109.817 19.9014 109.364 19.4497C108.9 19.0073 108.535 18.4727 108.291 17.8804C108.047 17.288 107.93 16.6511 107.948 16.0107C107.94 14.6912 108.448 13.4207 109.364 12.4706C109.807 12.0065 110.344 11.6407 110.938 11.3968C111.532 11.1529 112.171 11.0363 112.813 11.0546C114.139 11.0414 115.418 11.5499 116.373 12.4706C116.846 12.9272 117.216 13.4788 117.46 14.089C117.704 14.6992 117.816 15.3541 117.789 16.0107V19.5509H117.759ZM112.813 13.381C112.491 13.3578 112.168 13.4096 111.87 13.5325C111.571 13.6554 111.305 13.8459 111.093 14.089C110.864 14.3124 110.682 14.5799 110.559 14.8754C110.435 15.1709 110.373 15.4883 110.375 15.8085C110.354 16.1311 110.408 16.4542 110.532 16.7525C110.657 17.0508 110.849 17.3162 111.093 17.5279C111.317 17.7564 111.585 17.937 111.88 18.0587C112.176 18.1804 112.493 18.2407 112.813 18.236C113.135 18.2592 113.457 18.2073 113.756 18.0844C114.054 17.9615 114.32 17.771 114.532 17.5279C114.76 17.304 114.94 17.0362 115.062 16.7406C115.184 16.4451 115.244 16.128 115.24 15.8085C115.263 15.4866 115.211 15.1637 115.089 14.8653C114.966 14.567 114.775 14.3012 114.532 14.089C114.051 13.6721 113.448 13.4235 112.813 13.381Z" fill="#4B506D"/>
<path d="M133.639 17.6296C133.796 17.6296 133.951 17.6662 134.091 17.7364C134.232 17.8067 134.354 17.9086 134.448 18.0342C134.549 18.1398 134.621 18.27 134.657 18.4119C134.692 18.5538 134.69 18.7026 134.65 18.8434C134.639 19.0095 134.587 19.1702 134.499 19.3114C134.411 19.4525 134.289 19.5697 134.145 19.6526C133.71 20.0392 133.19 20.3166 132.627 20.4617C132.114 20.6597 131.569 20.7625 131.019 20.7652C130.379 20.7681 129.745 20.6445 129.153 20.4014C128.561 20.1584 128.023 19.8008 127.57 19.3491C127.107 18.9067 126.741 18.3721 126.497 17.7798C126.254 17.1874 126.137 16.5505 126.154 15.9102C126.146 14.5906 126.654 13.3202 127.57 12.3701C128.014 11.906 128.55 11.5401 129.144 11.2962C129.739 11.0523 130.377 10.9357 131.019 10.954C132.346 10.9408 133.624 11.4493 134.58 12.3701C135.052 12.8267 135.423 13.3782 135.667 13.9884C135.911 14.5986 136.023 15.2535 135.996 15.9102C135.996 16.517 135.591 16.8205 134.782 16.8205H128.814C128.846 17.0458 128.925 17.2618 129.047 17.4538C129.169 17.6457 129.331 17.8092 129.522 17.9331C129.986 18.2785 130.553 18.4567 131.13 18.4388C131.725 18.4373 132.3 18.2219 132.749 17.8319C133.034 17.7207 133.334 17.6526 133.639 17.6296ZM133.346 14.8987C133.218 14.412 132.925 13.9846 132.517 13.6895C132.11 13.3944 131.613 13.2498 131.11 13.2804C130.598 13.2478 130.09 13.3902 129.669 13.6842C129.248 13.9782 128.94 14.4064 128.794 14.8987H133.346Z" fill="#4B506D"/>
<path d="M125.648 11.4593C125.8 11.5446 125.932 11.6607 126.037 11.8C126.141 11.9393 126.216 12.0988 126.255 12.2685C126.322 12.5748 126.287 12.8947 126.154 13.1788C126.069 13.3306 125.953 13.4629 125.813 13.5674C125.674 13.6719 125.514 13.7462 125.345 13.7856C125.188 13.8274 125.023 13.8309 124.865 13.7957C124.707 13.7605 124.559 13.6876 124.435 13.5834C124.174 13.4951 123.899 13.4606 123.625 13.4822C123.092 13.4898 122.583 13.7079 122.209 14.0891C122.012 14.2673 121.855 14.4861 121.751 14.7306C121.646 14.975 121.595 15.2393 121.602 15.5051V19.7533C121.602 19.9248 121.566 20.0943 121.496 20.2511C121.426 20.4078 121.325 20.5483 121.198 20.6636C121.083 20.7913 120.943 20.8934 120.786 20.9634C120.629 21.0333 120.459 21.0694 120.288 21.0694C120.116 21.0694 119.946 21.0333 119.789 20.9634C119.632 20.8934 119.492 20.7913 119.377 20.6636C119.253 20.5464 119.153 20.4056 119.083 20.2492C119.014 20.0929 118.976 19.9243 118.973 19.7533V15.5051C118.983 14.3228 119.46 13.1925 120.299 12.3593C121.137 11.5261 122.271 11.0573 123.453 11.0547C124.209 10.9778 124.97 11.1181 125.648 11.4593Z" fill="#4B506D"/>
<path d="M99.2494 19.5512C99.2515 19.7231 99.2165 19.8934 99.1466 20.0505C99.0768 20.2077 98.9739 20.3478 98.8448 20.4615C98.7301 20.5892 98.5897 20.6913 98.4329 20.7612C98.276 20.8312 98.1062 20.8673 97.9345 20.8673C97.7628 20.8673 97.593 20.8312 97.4362 20.7612C97.2794 20.6913 97.139 20.5892 97.0242 20.4615C96.8996 20.3443 96.7996 20.2034 96.7301 20.0471C96.6606 19.8908 96.6231 19.7222 96.6196 19.5512V9.94228C96.6201 9.77076 96.6563 9.60122 96.726 9.44448C96.7956 9.28775 96.8972 9.14725 97.0242 9.03197C97.1414 8.90732 97.2822 8.80731 97.4386 8.73784C97.5949 8.66836 97.7635 8.63081 97.9345 8.62738C98.1074 8.61864 98.2798 8.65071 98.438 8.721C98.5961 8.79129 98.7355 8.89782 98.8448 9.03197C98.9809 9.13964 99.0888 9.27873 99.1593 9.43728C99.2297 9.59584 99.2607 9.76913 99.2494 9.94228V12.1675C100.024 11.7342 100.891 11.4915 101.778 11.4595C103.098 11.4515 104.368 11.9597 105.318 12.8755C105.792 13.3316 106.164 13.8828 106.41 14.493C106.656 15.1031 106.77 15.7583 106.744 16.4156V19.5512C106.744 19.7236 106.707 19.894 106.635 20.051C106.564 20.208 106.459 20.3479 106.33 20.4615C106.123 20.6909 105.838 20.8351 105.531 20.8661C105.358 20.8646 105.187 20.8279 105.029 20.7584C104.871 20.6888 104.728 20.5878 104.61 20.4615C104.476 20.3521 104.369 20.2128 104.299 20.0546C104.229 19.8965 104.197 19.724 104.206 19.5512V16.5168C104.229 16.1949 104.177 15.8721 104.054 15.5737C103.931 15.2753 103.741 15.0095 103.498 14.7973C103.274 14.5693 103.006 14.389 102.71 14.2673C102.415 14.1457 102.098 14.0851 101.778 14.0893C101.456 14.0661 101.133 14.118 100.835 14.2408C100.537 14.3637 100.271 14.5542 100.059 14.7973C99.8306 15.0213 99.6503 15.2891 99.5286 15.5846C99.407 15.8801 99.3464 16.1972 99.3506 16.5168V19.5512H99.2494Z" fill="#4B506D"/>
<path d="M28.8645 15.6433C28.8813 14.5047 28.5939 13.3822 28.0321 12.3916C27.4703 11.4011 26.6544 10.5784 25.6686 10.0083L10.2608 1.09335C9.18882 0.381684 7.93103 0.00142102 6.64433 0C4.92691 0.00500981 3.27761 0.672345 2.03993 1.86302C0.802252 3.0537 0.0715969 4.67594 0.000134797 6.39188V24.6424C-0.0054506 25.5165 0.162593 26.383 0.494517 27.1916C0.826441 28.0002 1.31564 28.7349 1.93372 29.353C2.55181 29.9711 3.28648 30.4603 4.09511 30.7922C4.90375 31.1241 5.77024 31.2922 6.64433 31.2866C7.97724 31.3001 9.27963 30.8876 10.3617 30.1091L25.3322 21.4465C26.3964 20.8959 27.2888 20.0635 27.9117 19.04C28.5347 18.0165 28.8643 16.8415 28.8645 15.6433Z" fill="url(#paint0_linear)"/>
<path d="M12.7 21.6984C12.7 21.6143 12.6159 21.6143 12.6159 21.5302C12.2582 20.7122 11.7104 19.9913 11.018 19.4276C10.8413 19.2594 0.0844727 12.6152 0.0844727 12.6152V24.7262C0.105636 25.6528 0.305537 26.5666 0.673198 27.4175C0.71531 27.4643 0.741769 27.5231 0.748891 27.5857C1.52959 29.1705 2.90788 30.3803 4.58056 30.9489C6.25323 31.5175 8.08327 31.3983 9.66809 30.6176C11.2529 29.8369 12.4627 28.4587 13.0313 26.786C13.5999 25.1133 13.4807 23.2833 12.7 21.6984Z" fill="url(#paint1_linear)"/>
<defs>
<linearGradient id="paint0_linear" x1="4.51651" y1="2.2708" x2="25.0126" y2="39.268" gradientUnits="userSpaceOnUse">
<stop offset="0.29" stop-color="#0182FE"/>
<stop offset="0.35" stop-color="#0685FE"/>
<stop offset="0.42" stop-color="#168CFE"/>
<stop offset="0.5" stop-color="#2F99FE"/>
<stop offset="0.59" stop-color="#52AAFE"/>
<stop offset="0.63" stop-color="#67B4FE"/>
</linearGradient>
<linearGradient id="paint1_linear" x1="0.158567" y1="24.1969" x2="10.5577" y2="10.4475" gradientUnits="userSpaceOnUse">
<stop stop-color="#0182FE"/>
<stop offset="0.3" stop-color="#1474F7"/>
<stop offset="0.83" stop-color="#3D56E8"/>
</linearGradient>
</defs>
</svg>
